<?xml version="1.0" encoding="utf-8"?>
<!-- Generator: Adobe Illustrator 16.0.0, SVG Export Plug-In . SVG Version: 6.00 Build 0)  -->
<!DOCTYPE svg PUBLIC "-//W3C//DTD SVG 1.1//EN" "http://www.w3.org/Graphics/SVG/1.1/DTD/svg11.dtd">
<svg version="1.1" xmlns="http://www.w3.org/2000/svg" xmlns:xlink="http://www.w3.org/1999/xlink" x="0px" y="0px"
	 width="170.12px" height="104.333px" viewBox="0 0 170.12 104.333" enable-background="new 0 0 170.12 104.333"
	 xml:space="preserve">
<g id="Ebene_2">
</g>
<g id="Ebene_1">
	<g>
		<g>
			<g>
				<g>
					<g>
						<g>
							<linearGradient id="SVGID_1_" gradientUnits="userSpaceOnUse" x1="46.6826" y1="37.0908" x2="110.9102" y2="37.0908">
								<stop  offset="0" style="stop-color:#07A5DD"/>
								<stop  offset="1" style="stop-color:#1492CF"/>
							</linearGradient>
							<path fill="url(#SVGID_1_)" d="M46.683,13.802v38.869h5.435l-2.69,7.71l11.774-7.71h49.708V13.802H46.683z"/>
						</g>
					</g>
				</g>
			</g>
		</g>
		<g>
			<path fill="#95C11F" d="M60.366,89.879v-33.51h7.371c1.675,0,3.148,0.16,4.424,0.478c1.267,0.315,2.387,0.812,3.339,1.489
				c0.956,0.676,1.684,1.585,2.177,2.736c0.498,1.147,0.747,2.52,0.747,4.12c0,0.697-0.024,1.318-0.074,1.862
				c-0.047,0.549-0.164,1.171-0.343,1.871c-0.182,0.703-0.427,1.321-0.738,1.861c-0.308,0.541-0.758,1.069-1.337,1.595
				c-0.587,0.521-1.275,0.952-2.068,1.301c2.01,6.38,3.759,11.78,5.248,16.196h-7.017l-3.833-15.434h-1.119v15.434H60.366z
				 M67.143,70.312h1.936c0.521,0,0.968-0.175,1.341-0.521c0.373-0.351,0.641-0.789,0.808-1.322
				c0.167-0.531,0.288-1.026,0.354-1.469c0.069-0.447,0.101-0.867,0.101-1.267c0-0.397-0.027-0.806-0.081-1.229
				c-0.055-0.423-0.156-0.89-0.3-1.406c-0.14-0.514-0.377-0.934-0.708-1.264c-0.326-0.33-0.727-0.494-1.197-0.494h-2.254V70.312z"/>
			<path fill="#95C11F" d="M81.102,77.423V56.369h6.78v20.852c0,1.19,0.003,2.057,0.015,2.597c0.015,0.541,0.046,1.197,0.093,1.976
				c0.051,0.773,0.14,1.313,0.261,1.629c0.128,0.307,0.295,0.646,0.517,1.002c0.214,0.362,0.498,0.599,0.844,0.708
				c0.35,0.113,0.77,0.167,1.267,0.167c0.498,0,0.918-0.054,1.264-0.167c0.35-0.109,0.63-0.343,0.851-0.699
				c0.214-0.354,0.385-0.685,0.51-0.992c0.125-0.314,0.21-0.851,0.26-1.613c0.051-0.761,0.082-1.406,0.093-1.936
				s0.016-1.381,0.016-2.562c0-0.046,0-0.084,0-0.108V56.369h6.775v21.054c0,1.069-0.027,2.037-0.093,2.907
				c-0.059,0.868-0.179,1.77-0.35,2.698c-0.175,0.929-0.408,1.754-0.708,2.465c-0.299,0.715-0.696,1.396-1.189,2.048
				c-0.498,0.65-1.084,1.19-1.765,1.614c-0.673,0.421-1.489,0.754-2.446,1.002c-0.956,0.25-2.029,0.374-3.219,0.374
				c-1.193,0-2.266-0.124-3.222-0.374c-0.953-0.248-1.77-0.581-2.438-1.002c-0.668-0.424-1.251-0.964-1.749-1.614
				c-0.498-0.652-0.894-1.333-1.193-2.048c-0.296-0.711-0.537-1.536-0.715-2.465c-0.179-0.929-0.299-1.83-0.365-2.698
				C81.137,79.46,81.102,78.492,81.102,77.423z"/>
			<path fill="#95C11F" d="M104.484,89.879v-33.51h6.776v13.738h4.859V56.369h6.815v33.51h-6.815V74.932h-4.859v14.947H104.484z"/>
			<path fill="#95C11F" d="M126.915,89.879v-33.51h7.375c1.675,0,3.149,0.16,4.42,0.478c1.271,0.315,2.387,0.812,3.339,1.489
				c0.957,0.676,1.684,1.585,2.181,2.736c0.494,1.147,0.743,2.52,0.743,4.12c0,0.697-0.023,1.318-0.074,1.862
				c-0.046,0.549-0.163,1.171-0.341,1.871c-0.184,0.703-0.424,1.321-0.739,1.861c-0.307,0.541-0.754,1.069-1.337,1.595
				c-0.587,0.521-1.271,0.952-2.068,1.301c2.01,6.38,3.763,11.78,5.252,16.196h-7.021l-3.833-15.434h-1.119v15.434H126.915z
				 M133.691,70.312h1.936c0.525,0,0.968-0.175,1.341-0.521c0.373-0.351,0.645-0.789,0.812-1.322
				c0.163-0.531,0.284-1.026,0.35-1.469c0.07-0.447,0.105-0.867,0.105-1.267c0-0.397-0.031-0.806-0.085-1.229
				c-0.055-0.423-0.156-0.89-0.296-1.406c-0.144-0.514-0.381-0.934-0.708-1.264c-0.33-0.33-0.73-0.494-1.201-0.494h-2.254V70.312z"
				/>
		</g>
		<g>
			<path fill="#FFFFFF" d="M70.312,47.646V18.672h5.859v11.876h4.888V18.672h5.895v28.974h-5.895V34.722h-4.888v12.924H70.312z"/>
			<path fill="#FFFFFF" d="M66.641,20.782c-1.261-1.411-3.817-2.11-6.58-2.11h-7.678v28.974h6.458V35.252
				c1.192-0.011,2.234-0.097,3.137-0.253c0.91-0.154,2.299-0.419,3.077-0.801c0.772-0.383,1.408-0.887,1.904-1.515
				c0.491-0.629,0.878-1.426,1.156-2.392c0.27-0.968,0.415-2.103,0.415-3.411C68.529,24.215,67.896,22.188,66.641,20.782z
				 M62.774,27.742c-0.06,0.383-0.161,0.811-0.306,1.269c-0.145,0.464-0.378,0.846-0.7,1.145c-0.323,0.301-0.709,0.451-1.16,0.451
				h-1.671v-7.76h1.948c0.403,0,0.749,0.145,1.035,0.432c0.282,0.282,0.487,0.647,0.612,1.091c0.125,0.446,0.214,0.85,0.258,1.22
				c0.048,0.361,0.068,0.717,0.068,1.062C62.859,26.993,62.831,27.356,62.774,27.742z"/>
			<path fill="#FFFFFF" d="M104.042,20.782c-1.26-1.411-3.817-2.11-6.583-2.11h-7.67v28.974h6.455V35.252
				c1.187-0.011,2.234-0.097,3.14-0.253c0.906-0.154,2.295-0.419,3.072-0.801c0.773-0.383,1.409-0.887,1.904-1.515
				c0.491-0.629,0.878-1.426,1.155-2.392c0.274-0.968,0.416-2.103,0.416-3.411C105.93,24.215,105.297,22.188,104.042,20.782z
				 M100.18,27.742c-0.061,0.383-0.165,0.811-0.31,1.269c-0.145,0.464-0.378,0.846-0.697,1.145c-0.326,0.301-0.712,0.451-1.16,0.451
				h-1.675v-7.76h1.949c0.407,0,0.753,0.145,1.035,0.432c0.282,0.282,0.491,0.647,0.612,1.091c0.125,0.446,0.213,0.85,0.257,1.22
				c0.048,0.361,0.072,0.717,0.072,1.062C100.264,26.993,100.236,27.356,100.18,27.742z"/>
		</g>
		<g>
			<g>
				<g>
					<path fill="#95C11F" d="M33.118,62.845c0.354,1.275,1.002,2.146,1.002,2.146s2.998,3.981,6.551,0c0,0,0.648-0.87,1.007-2.146
						c0,0,0.688-0.33,0.594-1.877v-0.525c0,0-0.186-0.271-0.334,0.175c0,0,0.556-4.226-1.399-5.527c0,0-0.778-0.987-3.145-1.074
						c-2.364,0.087-3.141,1.074-3.141,1.074c-1.956,1.302-1.4,5.527-1.4,5.527c-0.151-0.446-0.334-0.175-0.334-0.175v0.525
						C32.426,62.515,33.118,62.845,33.118,62.845z"/>
					<polygon fill="#95C11F" points="43.311,69.283 43.182,69.283 39.05,84.271 38.362,71.91 39.19,71.078 37.395,69.283 
						35.603,71.078 36.43,71.914 35.742,84.271 31.613,69.283 31.481,69.283 24.457,74.025 24.457,89.866 29.476,89.866 
						29.476,83.521 29.984,83.521 29.984,89.866 44.808,89.866 44.808,83.2 45.313,83.2 45.313,89.866 50.332,89.866 50.332,74.025 
											"/>
				</g>
			</g>
		</g>
		<path fill="#95C11F" d="M52.403,89.896v-5.548h5.683v5.548H52.403z"/>
	</g>
	<g>
		<linearGradient id="SVGID_2_" gradientUnits="userSpaceOnUse" x1="115.5938" y1="46.0156" x2="149.9272" y2="46.3486">
			<stop  offset="0" style="stop-color:#F39200"/>
			<stop  offset="1" style="stop-color:#F9B233"/>
		</linearGradient>
		<path fill="url(#SVGID_2_)" d="M120.974,47.723c0.312-0.405,0.636-0.873,0.972-1.404s0.595-1.085,0.778-1.66
			c0.183-0.575,0.274-1.157,0.274-1.745c0-1.132-0.305-2.027-0.914-2.687s-1.468-0.989-2.579-0.989c-0.501,0-0.95,0.068-1.344,0.204
			s-0.726,0.324-0.994,0.566c-0.268,0.242-0.49,0.539-0.665,0.89s-0.302,0.729-0.38,1.138c-0.078,0.407-0.117,0.855-0.117,1.345
			v0.837h2.521c0-0.034,0-0.094,0-0.178c0-0.123-0.001-0.258-0.003-0.403c-0.003-0.146,0.003-0.301,0.018-0.464
			c0.015-0.162,0.032-0.324,0.051-0.485c0.019-0.16,0.053-0.312,0.102-0.455s0.107-0.271,0.175-0.382
			c0.068-0.111,0.157-0.199,0.267-0.263c0.11-0.064,0.233-0.097,0.369-0.097c0.166,0,0.313,0.046,0.442,0.137
			c0.129,0.092,0.23,0.212,0.303,0.359c0.073,0.148,0.128,0.302,0.165,0.46s0.055,0.313,0.055,0.467
			c0,0.257-0.035,0.519-0.106,0.785c-0.07,0.267-0.175,0.536-0.314,0.808c-0.139,0.272-0.269,0.504-0.391,0.697
			c-0.122,0.192-0.275,0.425-0.46,0.696l-3.2,4.646v2.29h7v-2.564h-4.092c0.2-0.271,0.516-0.663,0.95-1.174
			C120.29,48.586,120.662,48.128,120.974,47.723z"/>
		<linearGradient id="SVGID_3_" gradientUnits="userSpaceOnUse" x1="115.5933" y1="46.0547" x2="149.9267" y2="46.3877">
			<stop  offset="0" style="stop-color:#F39200"/>
			<stop  offset="1" style="stop-color:#F9B233"/>
		</linearGradient>
		<path fill="url(#SVGID_3_)" d="M130.216,40.479c-0.277-0.388-0.646-0.69-1.106-0.908c-0.46-0.217-0.993-0.325-1.597-0.325
			c-0.609,0-1.144,0.108-1.604,0.325c-0.46,0.218-0.83,0.52-1.107,0.904c-0.278,0.386-0.486,0.826-0.625,1.323
			c-0.139,0.496-0.208,1.041-0.208,1.634v5.491c0,0.573,0.072,1.108,0.215,1.604c0.144,0.497,0.357,0.938,0.64,1.323
			c0.282,0.385,0.654,0.688,1.114,0.911c0.46,0.223,0.985,0.334,1.575,0.334c0.58,0,1.098-0.113,1.556-0.338s0.83-0.529,1.114-0.915
			c0.285-0.385,0.5-0.826,0.646-1.322c0.146-0.497,0.219-1.029,0.219-1.598v-5.491c0-0.593-0.069-1.136-0.208-1.63
			S130.494,40.866,130.216,40.479z M128.5,48.923c0,0.203-0.011,0.398-0.033,0.586s-0.065,0.39-0.128,0.607
			c-0.063,0.218-0.166,0.392-0.307,0.522c-0.141,0.131-0.314,0.196-0.519,0.196c-0.166,0-0.311-0.047-0.435-0.141
			c-0.125-0.094-0.221-0.209-0.289-0.345c-0.068-0.136-0.122-0.297-0.161-0.481c-0.039-0.186-0.065-0.351-0.077-0.497
			c-0.012-0.146-0.018-0.295-0.018-0.448v-5.491c0-0.178,0.003-0.333,0.011-0.467s0.029-0.298,0.066-0.493
			c0.037-0.194,0.088-0.356,0.153-0.485c0.066-0.128,0.162-0.239,0.289-0.333c0.127-0.094,0.28-0.141,0.46-0.141
			c0.658,0,0.986,0.64,0.986,1.919V48.923z"/>
		<linearGradient id="SVGID_4_" gradientUnits="userSpaceOnUse" x1="115.5942" y1="45.9785" x2="149.9277" y2="46.3115">
			<stop  offset="0" style="stop-color:#F39200"/>
			<stop  offset="1" style="stop-color:#F9B233"/>
		</linearGradient>
		<path fill="url(#SVGID_4_)" d="M133.482,40.06c-0.156,0.158-0.297,0.272-0.424,0.341c-0.127,0.069-0.305,0.16-0.533,0.271
			c-0.229,0.111-0.412,0.209-0.548,0.293v1.964h1.33v9.908h2.513V39.489h-1.943C133.77,39.712,133.638,39.901,133.482,40.06z"/>
		<linearGradient id="SVGID_5_" gradientUnits="userSpaceOnUse" x1="115.5938" y1="46.0332" x2="149.9272" y2="46.3662">
			<stop  offset="0" style="stop-color:#F39200"/>
			<stop  offset="1" style="stop-color:#F9B233"/>
		</linearGradient>
		<path fill="url(#SVGID_5_)" d="M144.186,46.859c-0.054-0.378-0.152-0.747-0.296-1.108c-0.144-0.36-0.327-0.667-0.548-0.919
			c-0.222-0.252-0.514-0.454-0.877-0.607s-0.778-0.229-1.246-0.229c-0.385,0-0.811,0.146-1.279,0.438v-2.409h3.895v-2.534h-6.262
			v7.663h2.155c0.107-0.272,0.252-0.513,0.435-0.723c0.183-0.21,0.393-0.315,0.632-0.315c0.151,0,0.284,0.031,0.398,0.093
			c0.115,0.062,0.207,0.149,0.278,0.263c0.07,0.114,0.128,0.231,0.172,0.353c0.043,0.121,0.075,0.265,0.095,0.43
			c0.02,0.166,0.032,0.304,0.037,0.415s0.007,0.241,0.007,0.389c0,0.04,0,0.106,0,0.2c-0.005,0.139-0.005,0.287,0,0.445
			s-0.001,0.322-0.018,0.492c-0.018,0.171-0.038,0.339-0.062,0.504c-0.024,0.166-0.064,0.321-0.121,0.467
			c-0.056,0.146-0.123,0.274-0.201,0.386c-0.078,0.111-0.18,0.199-0.307,0.263c-0.126,0.064-0.27,0.097-0.431,0.097
			c-0.127,0-0.238-0.026-0.333-0.078c-0.095-0.052-0.173-0.133-0.234-0.244s-0.109-0.229-0.146-0.353
			c-0.037-0.123-0.062-0.282-0.077-0.478s-0.024-0.375-0.029-0.541c-0.005-0.165-0.005-0.369,0-0.611h-2.528
			c0,0.519,0.03,0.988,0.091,1.408c0.061,0.42,0.17,0.826,0.329,1.219s0.365,0.723,0.621,0.989c0.255,0.267,0.588,0.479,0.997,0.638
			s0.884,0.237,1.425,0.237c0.478,0,0.903-0.066,1.279-0.196c0.375-0.131,0.688-0.318,0.938-0.56
			c0.251-0.242,0.463-0.516,0.636-0.819s0.306-0.652,0.398-1.045c0.092-0.393,0.158-0.778,0.197-1.156
			c0.039-0.378,0.058-0.786,0.058-1.227C144.266,47.648,144.239,47.237,144.186,46.859z"/>
	</g>
</g>
</svg>
