<svg xmlns="http://www.w3.org/2000/svg" width="500" height="500" viewBox="0 0 500 500"><path fill="#323132" d="M39.265 246.147c-.5 1.336-2.004 1.17-4.177-.168-2.675-.836-4.847-1.338-6.52-1.505-1.67-.334-3.174-.334-4.51-.334-5.515 0-8.188 1.84-8.188 5.683 0 1.838.5 3.342 1.336 4.345 1.003 1.003 3.51 2.006 7.854 3.01 5.35 1.336 9.694 3.51 13.036 6.518 3.844 3.008 5.85 7.353 5.85 13.033-.836 12.868-7.854 19.385-21.057 19.385-3.01 0-6.018-.337-9.193-1.17-3.174-.67-7.018-2.173-11.53-4.177-1.838-1.004-2.507-2.176-2.006-3.68l2.675-7.186c.835-1.002 2.34-1.002 4.178.166 3.676 1.505 6.517 2.343 8.523 3.01 2.004.504 4.01.837 5.848.837 5.013 0 7.52-1.837 7.52-5.683 0-4.012-3.342-6.854-10.193-8.19-2.172-.665-4.345-1.503-6.35-2.338-2.005-.835-4.345-2.34-6.852-4.847-1.503-1.67-2.506-3.342-3.175-5.18-.667-1.84-1-3.677-1-5.683 0-2.507.5-5.014 1.335-7.354.836-2.34 2.174-4.51 4.012-6.517 1.838-2.006 4.177-3.51 7.018-4.68 2.84-1.168 6.184-1.837 10.028-1.837 2.338 0 4.845.167 7.52.668 2.673.5 5.18 1.336 7.854 2.34 2.506.835 3.51 2.005 3.342 3.843l-3.177 7.69zm12.87-.836c-1.172 0-1.672-.5-1.672-1.67v-7.854c0-1.17.5-1.67 1.67-1.67h23.563c1.17 0 1.672.5 1.672 1.67v56.65c0 1.173-.502 1.67-1.672 1.67H63.498c-1.17 0-1.67-.497-1.67-1.67v-47.124h-9.694zm10.025-36.597c2.006-2.004 4.345-2.84 7.186-2.84 2.84 0 5.18 1.002 7.186 2.84 2.006 2.006 3.01 4.345 3.01 7.02 0 2.673-1.004 5.18-3.01 7.018-2.005 2.006-4.345 2.842-7.186 2.842-2.84 0-5.18-1.003-7.186-2.84-2.006-2.007-3.01-4.346-3.01-7.02.17-2.84 1.172-5.18 3.01-7.02zm48.797 106.452c-.334 1.17-1.17 2.006-2.34 2.172l-12.03 2.34c-.836 0-1.17-.334-1.17-1.172v-63c0-7.688-.668-13.37-1.84-17.045-.5-1.67-.332-2.674.837-3.342l9.358-3.01c2.674-.333 4.178.67 4.513 2.676.5 1.67 1.003 2.673 1.17 3.34 2.673-2.505 5.18-4.177 7.853-5.012 2.674-.835 5.18-1.337 7.688-1.337 3.175 0 6.017.502 8.523 1.503 2.672 1.003 5.012 3.01 7.185 6.016 1.17 1.84 2.34 3.678 3.01 5.682.834 2.006 1.503 4.178 1.837 6.35.334 2.174.668 4.18.835 6.352.168 2.006.168 4.01.168 5.852 0 2.003 0 4.01-.168 6.015-.167 2.004-.334 4.18-.835 6.183-.334 2.174-1.003 4.18-1.838 6.185-.836 2.006-2.006 4.012-3.343 6.02-2.17 2.84-4.678 5.01-7.353 6.347-2.84 1.337-6.183 2.008-10.527 2.008-1.17 0-2.84-.17-4.513-.505-1.838-.332-4.178-1.168-7.02-2.67v22.052zm0-33.592c1.672 1.004 3.343 1.673 5.013 2.01 1.505.165 2.84.332 4.012.332 1.337 0 3.007-.333 4.68-.836 1.67-.67 3.174-2.007 4.344-4.18 0-.168.167-.668.502-1.336.167-.67.5-1.504.668-2.672.167-1.172.333-2.676.5-4.685.168-1.836.168-4.345.168-7.187 0-2.672-.167-5.346-.667-8.188-.502-2.84-1.17-5.013-2.006-6.684-1.67-3.008-4.177-4.345-7.687-4.345-2.004 0-3.844.5-5.348 1.337-1.67 1.003-3.007 2.004-4.178 3.176v33.257zm97.763-11.364l.67 28.242c0 .838 0 1.84-.17 3.343 0 1.338-.333 2.842-.834 4.516-.502 1.503-1.337 3.175-2.34 4.677-1.003 1.505-2.507 3.01-4.178 4.346-1.838 1.338-4.01 2.342-6.684 3.174-2.674.838-5.85 1.172-9.693 1.172-1.67 0-3.675-.167-5.68-.335-2.173-.166-4.18-.502-6.35-1.004-2.173-.498-4.178-1-6.352-1.503-2.004-.666-3.843-1.337-5.514-2.003-1.504-.672-2.006-1.84-1.337-3.177l2.507-8.188c.668-1.006 2.006-1.172 3.844-.337 1.504.668 3.676 1.338 6.852 2.172 3.01.838 6.685 1.338 10.863 1.338 2.34 0 4.178-.332 5.514-.836 1.337-.668 2.34-1.336 3.01-2.338.667-1.006 1.002-2.01 1.168-3.345.167-1.17.167-2.505.167-3.676 0-1.67 0-3.01-.167-4.347 0-1.336-.167-2.508-.167-3.68-2.34 1.506-4.68 2.676-6.853 3.514-2.172.832-4.846 1.168-8.02 1.168-2.507 0-5.182-.502-7.69-1.338-2.506-1-4.845-2.504-6.85-4.847-2.007-2.34-3.677-5.35-4.848-9.022-1.17-3.844-1.838-8.52-1.838-14.203 0-5.35.5-10.028 1.67-14.04 1.17-4.01 2.84-7.352 4.846-10.026 2.173-2.674 4.68-4.68 7.52-6.017 2.842-1.336 6.184-2.004 9.525-2.004 2.175 0 4.18.166 5.85.667 1.673.5 3.176 1.17 4.514 1.838 1.336.835 2.673 1.838 4.01 3.175.334-1.003 1.003-2.172 1.838-3.51.835-1.336 2.172-2.005 3.844-1.837l9.692 3.51c1.504 1 1.504 3.174 0 6.183-1.503 3.007-2.34 6.518-2.34 10.53v18.043h.002zm-14.873-21.724c-1.672-1.17-3.175-2.172-4.345-2.673-1.337-.668-2.84-.836-4.847-.836-2.675 0-4.847.668-6.35 2.172-1.505 1.337-2.508 3.01-3.343 5.015-.668 2.004-1.17 4.01-1.337 6.017-.167 2.002-.167 3.842-.167 5.18 0 2.172.167 4.345.334 6.517.168 2.176.67 4.012 1.337 5.682s1.837 3.008 3.174 4.18c1.337 1.003 3.175 1.503 5.515 1.503 1.503 0 3.34-.333 5.18-1.002 2.005-.668 3.508-1.673 4.678-3.01V248.49h.17v-.004zm65.674 47.125c-1.17 0-2.17-.333-2.673-1.167-1.002-2.006-1.84-4.012-2.173-5.683-2.34 2.505-4.847 4.345-7.354 5.513-2.507 1.172-5.514 1.84-9.023 1.84-5.682 0-10.027-1.67-13.37-5.014-3.342-3.342-5.013-7.855-5.013-13.368 0-7.188 2.506-12.533 7.52-15.877 5.682-3.344 13.87-5.014 24.733-5.014v-3.844c0-.834 0-2.006-.166-3.175 0-1.336-.5-2.34-1.336-3.34-.503-.67-1.338-1.17-2.507-1.672-1.003-.502-2.506-.668-4.178-.668-1.672 0-3.343.167-5.014.5-1.67.334-3.343.836-5.013 1.337-4.178 1.838-6.52 1.838-7.02.334l-2.674-7.353c-.5-1.504.333-2.84 2.674-3.676 1.17-.5 2.674-1.002 4.345-1.502 1.67-.334 3.342-.67 5.012-1.003 1.67-.334 3.51-.5 5.18-.67 1.672-.166 3.176-.166 4.345-.166 3.844 0 7.52.5 10.696 1.503 3.344 1.003 5.85 3.175 7.854 6.183 1.17 2.172 2.006 4.346 2.34 6.685.335 2.34.5 4.01.5 5.182v23.397c0 1.835 0 3.67.17 5.51.165 2.008.668 4.01 1.67 6.52.335 1.17.836 2.005 1.17 2.84.334.67 0 1.34-.67 2.007l-10.026 3.844zm-7.016-28.908c-2.173 0-4.18.167-6.35.333-2.173.167-4.01.67-5.515 1.338-1.672.668-3.01 1.67-4.013 3.007s-1.503 3.01-1.503 5.017c0 2.506.835 4.512 2.34 6.016 1.67 1.504 3.51 2.172 5.682 2.172 1.67 0 3.175-.336 4.845-1.168 1.505-.838 3.01-2.01 4.347-3.346v-13.366l.167-.002zm35.262-21.39h-8.857c-1.17 0-1.67-.502-1.67-1.67v-7.856c0-1.17.5-1.67 1.67-1.67h8.856V218.74c0-1.335.668-2.003 2.006-2.17l10.86-1.504c1.84-.334 2.842.334 2.842 2.006v17.045h13.87c1.505 0 2.173.835 2.005 2.507l-1.504 7.186c-.335 1.17-1.003 1.67-1.84 1.67h-12.532v29.08c0 1 0 2.005 0 2.84s.167 1.67.5 2.34c.337.67.837 1.17 1.506 1.504s1.672.67 3.01.67c.834 0 1.837-.168 2.84-.337 1.002-.167 2.34-.666 4.01-1.335 1.672-.835 2.842-.835 3.343 0l2.507 10.026c.168 1.84-.835 3.008-3.176 3.51-1.838.67-4.177 1.338-6.517 1.67-2.507.333-4.68.503-6.852.503-4.18 0-7.354-.668-9.525-2.006-2.173-1.338-3.846-3.008-4.848-5.18-1.002-2.173-1.67-4.68-1.838-7.52-.166-2.842-.334-5.684-.334-8.855v-27.076h-.334v-.003zm54.478 22.728c0 4.345 1.003 7.853 3.008 10.692 2.006 2.84 5.516 4.178 10.695 4.178 2.84 0 5.348-.333 7.52-.832 2.174-.505 3.678-1.17 4.848-1.674 2.173-1.168 3.844-1.168 4.68-.166l3.175 7.186c1.003 1.674.502 2.842-1.67 3.844-2.34 1.504-5.35 2.674-9.025 3.678-3.676.832-7.186 1.338-10.694 1.338-4.345 0-8.187-.506-11.196-1.674-3.174-1.168-5.682-2.67-7.52-4.344-1.84-1.84-3.51-3.843-5.015-6.02-1.338-2.168-2.34-4.51-3.008-6.682-.67-2.34-1.003-4.516-1.17-6.52-.168-2.005-.168-3.844-.168-5.182 0-4.844.67-9.19 1.838-13.366 1.17-4.178 3.01-7.688 5.348-10.697 2.342-3.008 5.183-5.35 8.523-7.02 3.343-1.67 7.186-2.506 11.53-2.506 3.844 0 7.187.5 9.858 1.67 2.676 1.17 5.017 2.674 6.855 4.512 1.84 1.838 3.176 4.01 4.345 6.35 1.003 2.34 1.838 4.68 2.34 7.02.668 2.673 1.002 5.014 1.17 7.186.167 2.173.167 4.01.167 5.683 0 2.672-1.003 3.843-2.842 3.843h-33.59v-.498zm19.385-11.197c0-9.192-3.01-13.704-8.857-13.704-7.02 0-10.527 4.51-10.527 13.703h19.383z"/><linearGradient id="a" gradientUnits="userSpaceOnUse" x1="920.138" y1="630.969" x2="854.834" y2="502.803" gradientTransform="matrix(.588 0 0 .588 -85.301 -115.646)"><stop offset="0" stop-color="#F85C5C"/><stop offset=".148" stop-color="#F25C60"/><stop offset=".352" stop-color="#E05C6B"/><stop offset=".589" stop-color="#C35C7D"/><stop offset=".849" stop-color="#9A5B95"/><stop offset="1" stop-color="#7F5BA6"/></linearGradient><path fill="url(#a)" d="M500 217.738c0 1-.335 2.004-1.17 2.84-.168.168-.334.335-.502.335l-25.735 25.735c-1.503 1.504-4.012 1.504-5.682 0-1.503-1.504-1.503-4.01 0-5.682l23.397-23.396-23.396-23.396c-1.503-1.504-1.503-4.01 0-5.682 1.505-1.504 4.012-1.504 5.683 0l25.735 25.736c.168.166.334.166.502.334.835 1.17 1.17 2.173 1.17 3.176zm-93.585-28.912c-1.504-1.503-4.01-1.503-5.682 0l-25.735 25.736c-.168.167-.334.167-.5.334-.837.835-1.17 1.838-1.17 2.84 0 1.002.333 2.005 1.17 2.842.166.167.332.334.5.334l25.735 25.735c1.505 1.504 4.012 1.504 5.682 0 1.672-1.504 1.505-4.01 0-5.682L383.02 217.57l23.395-23.397c1.672-1.335 1.672-3.843 0-5.347zm22.06 14.373c3.678 0 5.516-1.672 5.516-5.182 0-3.51-1.837-5.18-5.514-5.18-3.678 0-5.35 1.67-5.35 5.18 0 3.343 1.84 5.18 5.35 5.18zm1.337 4.01h-12.2c-.5 0-.834.333-1.002.834l-.835 3.844c0 .668.334 1.003.835 1.003h5.014l-5.348 24.232c-.167.837 0 1.337.836 1.337h6.183c.5 0 .835-.335 1.003-.836l6.352-29.078c-.003-.836-.17-1.337-.838-1.337zm31.584 10.528c0 3.342-.502 6.517-1.67 9.19-1.172 2.674-2.51 5.014-4.18 6.853-1.17 1.338-2.34 2.34-3.677 3.176-1.17.835-2.508 1.337-3.677 1.67-1.17.334-2.174.668-3.177.836-1.003.167-1.838.167-2.507.167-7.187 0-10.694-3.845-10.694-11.53 0-3.344.5-6.352 1.67-9.192s2.674-5.18 4.513-7.186c1.838-2.006 4.01-3.51 6.183-4.346 2.34-.835 4.512-1.17 6.518-1.17 7.186 0 10.696 3.844 10.696 11.532zm-8.355-.67c0-3.008-1.337-4.678-3.843-4.678-.836 0-1.504.167-2.173.5s-1.172.67-1.672 1.004c-.5.5-1.004.835-1.338 1.337-.334.5-.668 1.002-.835 1.336-.836 1.672-1.505 3.51-2.007 5.682-.5 2.172-.835 4.178-.835 6.184 0 3.007 1.17 4.68 3.676 4.68.502 0 1.003 0 1.505-.168s1.17-.333 1.67-.835c.503-.5 1.17-.836 1.84-1.504.667-.67 1.17-1.504 1.67-2.507.335-.837.67-1.672 1.003-2.675.335-1.003.5-1.838.67-2.84.166-1.004.333-2.006.5-2.842 0-.836.168-1.84.168-2.674z"/></svg>