<?xml version="1.0" encoding="utf-8"?>
<!-- Generator: Adobe Illustrator 19.1.0, SVG Export Plug-In . SVG Version: 6.00 Build 0)  -->
<svg version="1.1" id="Ebene_1" xmlns="http://www.w3.org/2000/svg" xmlns:xlink="http://www.w3.org/1999/xlink" x="0px" y="0px"
	 viewBox="0 0 400 400" enable-background="new 0 0 400 400" xml:space="preserve">
<g>
	<path fill="#383637" d="M24.3,190.1V190c0-3.8,2.5-5.6,6.1-5.6c3.6,0,6.2,1.8,6.2,5.3v0.1c0,1.3,0.7,2.1,2.1,2.1h2.5
		c1.6,0,2.4-0.8,2.4-2.4v-0.1c0-6.7-5.4-11.5-13.2-11.5c-7.6,0-13.1,4.4-13.1,12.1c0,16,19.8,11.1,19.8,20.7v0.2
		c0,4.1-2.9,5.7-6.7,5.7c-3.7,0-6.6-1.7-6.6-5.7c0-1.3-0.7-2.1-2.1-2.1h-2.6c-1.6,0-2.3,0.7-2.3,2.3v0.4c0,6.7,5.6,11.5,13.5,11.5
		c7.9,0,13.6-4.3,13.6-11.9C44.1,195,24.3,199.8,24.3,190.1z"/>
	<path fill="#383637" d="M64.9,177.9c-8,0-14,4.6-14,14.3v47.4c0,1.5,0.8,2.3,2.4,2.3h2.2c1.6,0,2.4-0.8,2.4-2.3v-20.8
		c2.1,2.9,5.2,4.2,9,4.2c6.8,0,12-4.4,12-13.6v-17.3C78.9,182.5,72.9,177.9,64.9,177.9z M71.9,208.3c0,6.2-3.1,8.2-7,8.2
		c-3.9,0-7-2.1-7-8.2v-15.7c0-6.2,3.1-8.2,7-8.2c3.9,0,7,2.1,7,8.2V208.3z"/>
	<path fill="#383637" d="M100.1,177.9c-8,0-14,4.6-14,14.3v17.3c0,9.1,5.2,13.6,12,13.6c3.8,0,6.9-1.3,9-4.2v1.2
		c0,1.5,0.8,2.3,2.4,2.3h2.2c1.6,0,2.4-0.8,2.4-2.3v-27.8C114.1,182.5,108.1,177.9,100.1,177.9z M107.1,208.3c0,6.2-3.1,8.2-7,8.2
		c-3.9,0-7-2.1-7-8.2v-15.7c0-6.2,3.1-8.2,7-8.2c3.9,0,7,2.1,7,8.2V208.3z"/>
	<path fill="#383637" d="M138.6,178.3c-1.6-0.3-2.8-0.3-4-0.3c-7.8,0-12.4,3.2-12.4,12.2V220c0,1.5,0.7,2.3,2.3,2.3h2.3
		c1.6,0,2.4-0.8,2.4-2.3v-29.3c0-4.8,2.1-6.2,6.4-6.2c0.8,0,1.7,0.2,2.7,0.3c1.6,0.2,2.4-0.7,2.4-2.3v-1.8
		C140.6,179.1,139.8,178.5,138.6,178.3z"/>
	<path fill="#383637" d="M164.6,178.1c-3.4,0-6.2,1.1-8.1,3.5V161c0-2-1-3-3-3h-3c-2,0-3,1-3,3v58.3c0,2,1,3,3,3h3c2,0,3-1,3-3
		v-26.1c0-5.3,2.5-6.8,5.5-6.8s5.5,1.6,5.5,6.8v26.1c0,2,1,3,3,3h3c2,0,3-1,3-3v-27.7C176.4,182.5,171.3,178.1,164.6,178.1z"/>
	<path fill="#383637" d="M233.9,178c-8.2,0-14.4,4.9-14.4,14.5v26.9c0,2,1,3,3,3h3c2,0,3-1,3-3v-26.3c0-5.3,2.5-6.8,5.5-6.8
		c3,0,5.5,1.6,5.5,6.8v26.3c0,2,1,3,3,3h3c2,0,3-1,3-3v-26.9C248.3,182.8,242.1,178,233.9,178z"/>
	<path fill="#383637" d="M281.3,158h-3c-2,0-3,1-3,3v20.4c-2-2.4-4.9-3.5-8.1-3.5c-6.7,0-11.8,4.4-11.8,13.6v17
		c0,9.9,6.2,14.6,14.4,14.6c8.2,0,14.4-4.7,14.4-14.6V161C284.3,159,283.3,158,281.3,158z M275.4,208c0,5.3-2.5,6.8-5.5,6.8
		c-3,0-5.5-1.6-5.5-6.8v-14.9c0-5.3,2.5-6.8,5.5-6.8c3,0,5.5,1.6,5.5,6.8V208z"/>
	<path fill="#383637" d="M197.9,178c-8.2,0-14.4,4.7-14.4,14.6v17c0,9.2,5,13.6,11.8,13.6c3.3,0,6.2-1.1,8.1-3.5v0.1
		c0,2,1,2.6,3,2.6h3c2,0,3-0.7,3-2.6v-27.2C212.3,182.6,206.1,178,197.9,178z M203.4,208c0,5.3-2.5,6.8-5.5,6.8
		c-3,0-5.5-1.6-5.5-6.8v-14.9c0-5.3,2.5-6.8,5.5-6.8c3,0,5.5,1.6,5.5,6.8V208z"/>
	<path fill="#383637" d="M319.7,178h-3.2c-1.9,0-3,0.6-3.4,2.1l-6.9,27.3l-7.4-27.3c-0.4-1.5-1.5-2.1-3.4-2.1H292
		c-1.9,0-2.8,1.1-2.3,2.7l12.3,41.4l-4.4,16.5c-0.5,1.9,0.3,3.1,2.2,3.2l3.2,0.1c1.9,0,3-0.6,3.4-2.3l15.5-58.9
		C322.5,179.1,321.6,178,319.7,178z"/>
	<path fill="#AA2436" d="M329.2,215.3c0-1.7,0-25.2,0-25.2c0-6.7,5.5-12.2,12.2-12.2h30c6.7,0,12.2,5.5,12.2,12.2v11.1
		c0,6.7-5.5,12.2-12.2,12.2h-26.7c-4.2,6.2-9.4,8.9-11.7,8.9C328.9,222.3,329.2,216.2,329.2,215.3z"/>
	<g>
		<path fill="#383637" d="M315,240.8c0,0.6-0.3,1-1,1h-1.6c-0.6,0-1-0.3-1-1v-1.6c0-0.6,0.3-1,1-1h1.6c0.6,0,1,0.3,1,1V240.8z"/>
		<path fill="#383637" d="M317.4,231.5c0-3,1.6-4.4,3.8-4.4c1.1,0,2,0.4,2.7,1.1v-4.8c0-0.6,0.3-1,1-1h1c0.6,0,1,0.3,1,1v13.6
			c0,3.2-2,4.7-4.7,4.7c-2.7,0-4.7-1.5-4.7-4.7V231.5z M320.3,236.9c0,1.7,0.8,2.2,1.8,2.2c1,0,1.8-0.5,1.8-2.2V232
			c0-1.7-0.8-2.2-1.8-2.2c-1,0-1.8,0.5-1.8,2.2V236.9z"/>
		<path fill="#383637" d="M336.4,236.8h1.1c0.6,0,1,0.3,1,1c0,2.4-1.8,4.1-4.6,4.1c-2.7,0-4.7-1.6-4.7-4.7v-5.2c0-3.2,2-4.8,4.7-4.8
			c2.7,0,4.7,1.6,4.7,4.8v2.3c0,0.6-0.3,1-1,1h-5.5v1.8c0,1.7,0.8,2.2,1.8,2.2c1,0,1.7-0.6,1.7-1.5
			C335.6,237.1,335.9,236.8,336.4,236.8z M332.1,232.9h3.6V232c0-1.7-0.8-2.2-1.8-2.2c-1,0-1.8,0.5-1.8,2.2V232.9z"/>
	</g>
</g>
</svg>
