<?xml version="1.0" encoding="utf-8"?>
<!DOCTYPE svg PUBLIC "-//W3C//DTD SVG 1.1//EN" "http://www.w3.org/Graphics/SVG/1.1/DTD/svg11.dtd">
<svg version="1.1" xmlns="http://www.w3.org/2000/svg" xmlns:xlink="http://www.w3.org/1999/xlink" viewBox="0 0 500 500">
<symbol  id="claw" viewBox="-44.47 -34.443 88.94 68.885">
	<path fill="#231F20" stroke="#231F20" stroke-width="6" d="M18.198,13.446c0,9.939-8.058,17.996-17.998,17.996
		s-17.998-8.057-17.998-17.996c0-9.941,8.058-17.999,17.998-17.999S18.198,3.505,18.198,13.446z"/>
	<path fill="#7A7A7A" d="M-11.808,4.593c0,9.941,8.057,17.999,17.997,17.999c4.256,0,8.16-1.486,11.241-3.954
		C15.201,26.045,8.334,31.442,0.2,31.442c-9.94,0-17.998-8.057-17.998-17.996c0-5.685,2.642-10.744,6.756-14.045
		C-11.535,1.048-11.808,2.788-11.808,4.593z"/>
	<g>
		<path fill="#7A7A7A" d="M-24.293-17.059c-2.528-2.121-6.332-1.788-8.453,0.74l-1.751,2.088c-2.121,2.528-1.788,6.332,0.74,8.453
			l16.416,13.773c2.528,2.121,6.332,1.788,8.454-0.739l1.751-2.087c2.122-2.527,1.789-6.331-0.739-8.452L-24.293-17.059z"/>
		<path fill="none" stroke="#231F20" stroke-width="6" d="M-24.293-17.059c-2.528-2.121-6.332-1.788-8.453,0.74l-1.751,2.088
			c-2.121,2.528-1.788,6.332,0.74,8.453l16.416,13.773c2.528,2.121,6.332,1.788,8.454-0.739l1.751-2.087
			c2.122-2.527,1.789-6.331-0.739-8.452L-24.293-17.059z"/>
	</g>
	<g>
		<path fill="#7A7A7A" d="M-27.113-27.167c-0.948-3.161-4.31-4.972-7.471-4.023l-2.61,0.782c-3.161,0.948-4.972,4.31-4.023,7.471
			l3.478,11.595c0.948,3.161,4.31,4.972,7.471,4.023l2.61-0.782c3.161-0.948,4.971-4.31,4.023-7.471L-27.113-27.167z"/>
		<path fill="none" stroke="#231F20" stroke-width="6" d="M-27.113-27.167c-0.948-3.161-4.31-4.972-7.471-4.023l-2.61,0.782
			c-3.161,0.948-4.972,4.31-4.023,7.471l3.478,11.595c0.948,3.161,4.31,4.972,7.471,4.023l2.61-0.782
			c3.161-0.948,4.971-4.31,4.023-7.471L-27.113-27.167z"/>
	</g>
	<g>
		<path fill="#7A7A7A" d="M24.292-17.059c2.528-2.121,6.331-1.788,8.452,0.74l1.752,2.088c2.121,2.528,1.788,6.332-0.741,8.453
			L17.339,7.996c-2.528,2.121-6.332,1.788-8.454-0.739L7.135,5.17C5.013,2.643,5.346-1.161,7.874-3.282L24.292-17.059z"/>
		<path fill="none" stroke="#231F20" stroke-width="6" d="M24.292-17.059c2.528-2.121,6.331-1.788,8.452,0.74l1.752,2.088
			c2.121,2.528,1.788,6.332-0.741,8.453L17.339,7.996c-2.528,2.121-6.332,1.788-8.454-0.739L7.135,5.17
			C5.013,2.643,5.346-1.161,7.874-3.282L24.292-17.059z"/>
	</g>
	<g>
		<path fill="#7A7A7A" d="M27.112-27.167c0.948-3.161,4.31-4.972,7.471-4.023l2.612,0.782c3.161,0.948,4.972,4.31,4.023,7.471
			L37.74-11.343c-0.948,3.161-4.31,4.972-7.471,4.023l-2.61-0.782c-3.161-0.948-4.971-4.31-4.023-7.471L27.112-27.167z"/>
		<path fill="none" stroke="#231F20" stroke-width="6" d="M27.112-27.167c0.948-3.161,4.31-4.972,7.471-4.023l2.612,0.782
			c3.161,0.948,4.972,4.31,4.023,7.471L37.74-11.343c-0.948,3.161-4.31,4.972-7.471,4.023l-2.61-0.782
			c-3.161-0.948-4.971-4.31-4.023-7.471L27.112-27.167z"/>
	</g>
	<path fill="#D6D6D6" d="M-4.48,25.448c0-1.594-1.292-2.885-2.884-2.885c-1.594,0-2.885,1.291-2.885,2.885s1.292,2.886,2.885,2.886
		C-5.772,28.334-4.48,27.042-4.48,25.448z"/>
	
		<line fill="#7A7A7A" stroke="#231F20" stroke-width="6" stroke-linecap="round" x1="-11.705" y1="-0.74" x2="-21.913" y2="-9.825"/>
	
		<line fill="#7A7A7A" stroke="#231F20" stroke-width="6" stroke-linecap="round" x1="-27.792" y1="-15.287" x2="-30.554" y2="-25.104"/>
</symbol>
<g id="Ebene_7">
</g>
<g id="Ebene_1">
</g>
<g id="Ebene_8" display="none">
	<g display="inline">
		<path fill="#7A7A7A" d="M175.952,168.996c-15.275,4.96-26.321,19.3-26.321,36.228c0,21.037,17.054,38.092,38.09,38.092
			c21.037,0,38.091-17.055,38.091-38.092c0-7.822-2.361-15.091-6.405-21.14C209.143,177.679,193.161,173.419,175.952,168.996z"/>
		
			<rect x="159.702" y="203.449" transform="matrix(0.9922 -0.1245 0.1245 0.9922 -24.1215 25.6264)" fill="#231F20" width="66.502" height="4.678"/>
		
			<rect x="160.068" y="207.511" transform="matrix(0.9922 -0.1245 0.1245 0.9922 -24.4813 25.6943)" fill="#D6D6D6" width="66.503" height="2.385"/>
		<path fill="#231F20" stroke="#231F20" stroke-width="2" d="M159.686,207.109c0-16.476,10.466-30.497,25.108-35.808
			c-2.896-0.771-5.848-1.536-8.842-2.306c-15.275,4.96-26.321,19.3-26.321,36.228c0,20.391,16.022,37.039,36.164,38.043
			C170.63,238.243,159.686,223.958,159.686,207.109z"/>
		<path fill="none" stroke="#7A7A7A" stroke-width="3" d="M175.952,168.996c-15.275,4.96-26.321,19.3-26.321,36.228
			c0,21.037,17.054,38.092,38.09,38.092c21.037,0,38.091-17.055,38.091-38.092c0-7.822-2.361-15.091-6.405-21.14
			C209.143,177.679,193.161,173.419,175.952,168.996z"/>
	</g>
	<g display="inline">
		<path fill="#7A7A7A" d="M315.75,168.996c15.274,4.96,26.321,19.3,26.321,36.228c0,21.037-17.054,38.092-38.091,38.092
			c-21.037,0-38.091-17.055-38.091-38.092c0-7.822,2.361-15.091,6.405-21.14C282.56,177.679,298.542,173.419,315.75,168.996z"/>
		
			<rect x="265.498" y="203.449" transform="matrix(-0.9922 -0.1245 0.1245 -0.9922 569.5504 447.1723)" fill="#231F20" width="66.502" height="4.678"/>
		
			<rect x="265.132" y="207.511" transform="matrix(-0.9922 -0.1245 0.1245 -0.9922 568.4589 452.9342)" fill="#D6D6D6" width="66.502" height="2.385"/>
		<path fill="#231F20" stroke="#231F20" stroke-width="2" d="M332.017,207.109c0-16.476-10.466-30.497-25.108-35.808
			c2.896-0.771,5.849-1.536,8.842-2.306c15.274,4.96,26.321,19.3,26.321,36.228c0,20.391-16.022,37.039-36.164,38.043
			C321.072,238.243,332.017,223.958,332.017,207.109z"/>
		<path fill="none" stroke="#7A7A7A" stroke-width="3" d="M315.75,168.996c15.274,4.96,26.321,19.3,26.321,36.228
			c0,21.037-17.054,38.092-38.091,38.092c-21.037,0-38.091-17.055-38.091-38.092c0-7.822,2.361-15.091,6.405-21.14
			C282.56,177.679,298.542,173.419,315.75,168.996z"/>
	</g>
</g>
<g id="Ebene_9">
</g>
<g id="Ebene_6">
</g>
<g id="Ebene_10">
</g>
<g id="Ebene_2">
	<g>
		<circle fill="#7DCFB6" cx="245.089" cy="215.501" r="215.29"/>	
		<path fill="#231F20" stroke="#FFFFFF" stroke-width="15.8731" d="M246.652,367.388c0,0,41.693,2.349,63.049-14.953
			c21.355-17.299,81.354-88.133,81.354-162.28c0-74.144-55.931-116.996-144.403-116.996h-0.009
			c-88.472,0-144.403,42.853-144.403,116.996c0,74.147,59.999,144.981,81.354,162.28c21.355,17.302,63.049,14.953,63.049,14.953
			H246.652z"/>
		<path fill="none" stroke="#FFFFFF" stroke-width="15.8731" stroke-linecap="round" stroke-linejoin="round" d="M105.826,157.34
			c-5.403-15.184-7.054-41.189-7.054-41.189c24.947,63.904,146.676,29.391,147.868,119.471"/>
		<path fill="none" stroke="#FFFFFF" stroke-width="15.8731" stroke-linecap="round" stroke-linejoin="round" d="M246.496,235.621
			c1.19-90.08,122.92-55.566,147.867-119.471c0,0-1.65,26.006-7.054,41.189"/>
		<path fill="#231F20" stroke="#FFFFFF" stroke-width="15.8731" d="M106.678,238.077c-34.027-2.532,4.213,101.541,23.612,103.671
			C135.191,342.288,110.283,238.344,106.678,238.077z"/>
		<path fill="#231F20" stroke="#FFFFFF" stroke-width="15.8731" d="M383.769,238.077c34.029-2.532-4.213,101.541-23.611,103.671
			C355.256,342.288,380.163,238.344,383.769,238.077z"/>
		<circle fill="#D6D6D6" cx="185.915" cy="354.051" r="2.391"/>
		<circle fill="#D6D6D6" cx="296.76" cy="354.051" r="2.391"/>
		<g>
			<path fill="#231F20" stroke="#FFFFFF" stroke-width="15.8731" stroke-linecap="round" d="M223.619,385.624
				c-0.433-1.441-1.359-2.604-2.539-3.362c-0.316-1.158-0.969-2.232-1.953-3.059l-11.875-9.962
				c-0.282-0.236-0.583-0.439-0.893-0.617c0.476-1.456,0.741-3.009,0.741-4.626c0-1.495-0.228-2.94-0.637-4.302l0,0l-0.001-0.002
				c-0.07-0.235-0.157-0.461-0.236-0.689c-0.069-0.188-0.134-0.38-0.208-0.563c-0.088-0.225-0.189-0.44-0.288-0.658
				c-0.084-0.184-0.171-0.366-0.263-0.547c-0.107-0.207-0.215-0.413-0.331-0.616c-0.104-0.184-0.217-0.362-0.328-0.542
				c-0.119-0.188-0.237-0.377-0.363-0.563c-0.146-0.209-0.302-0.41-0.457-0.612c-0.191-0.243-0.385-0.483-0.59-0.717
				c-0.183-0.208-0.364-0.414-0.558-0.612c-0.135-0.139-0.278-0.271-0.42-0.404c-0.18-0.17-0.361-0.337-0.549-0.499
				c-0.147-0.126-0.298-0.248-0.45-0.369c-0.202-0.157-0.406-0.312-0.615-0.458c-0.149-0.107-0.296-0.212-0.449-0.312
				c-0.251-0.168-0.51-0.319-0.771-0.469c-0.12-0.071-0.235-0.146-0.358-0.208c-0.381-0.208-0.775-0.397-1.176-0.568
				c-0.112-0.048-0.229-0.088-0.342-0.132c-0.304-0.121-0.609-0.235-0.921-0.338c-0.154-0.05-0.31-0.093-0.465-0.14
				c-0.286-0.08-0.574-0.156-0.865-0.221c-0.163-0.035-0.326-0.072-0.491-0.103c-0.309-0.061-0.623-0.105-0.938-0.145
				c-0.146-0.019-0.29-0.038-0.438-0.053c-0.464-0.044-0.931-0.073-1.406-0.073c-8.238,0-14.915,6.679-14.915,14.915
				c0,0.557,0.037,1.104,0.095,1.645c0.018,0.169,0.053,0.333,0.076,0.502c0.054,0.369,0.113,0.738,0.193,1.098
				c0.041,0.186,0.092,0.365,0.139,0.547c0.06,0.228,0.112,0.463,0.182,0.685c-0.411,0.21-0.806,0.459-1.172,0.768l-11.875,9.962
				c-0.984,0.826-1.637,1.9-1.953,3.059c-1.179,0.759-2.107,1.921-2.539,3.362l-2.232,7.446c-0.965,3.214,0.876,6.631,4.091,7.597
				l0,0c3.215,0.963,6.634-0.879,7.598-4.091l2.232-7.446c0.014-0.042,0.021-0.087,0.034-0.132c0.209-0.135,0.416-0.279,0.612-0.445
				l11.875-9.964c0.417-0.351,0.769-0.749,1.067-1.175c1.965,0.953,4.162,1.5,6.491,1.5c2.233,0,4.342-0.503,6.243-1.383
				c0.282,0.383,0.605,0.739,0.982,1.058l11.875,9.964c0.196,0.166,0.403,0.311,0.613,0.445c0.013,0.045,0.02,0.09,0.033,0.132
				l2.233,7.446c0.964,3.212,4.382,5.054,7.596,4.091h0.001c3.214-0.966,5.055-4.383,4.092-7.597L223.619,385.624z"/>
			<path fill="#231F20" stroke="#FFFFFF" stroke-width="15.8731" stroke-linecap="round" d="M336.698,393.07l-2.234-7.446
				c-0.431-1.441-1.359-2.602-2.538-3.362c-0.316-1.158-0.97-2.232-1.953-3.059l-11.875-9.962c-0.282-0.236-0.585-0.439-0.894-0.617
				c0.475-1.456,0.741-3.009,0.741-4.626c0-1.762-0.321-3.447-0.884-5.018c-0.063-0.179-0.125-0.357-0.194-0.534
				c-0.092-0.229-0.193-0.449-0.296-0.675c-0.082-0.176-0.167-0.351-0.255-0.527c-0.108-0.213-0.22-0.424-0.339-0.632
				c-0.102-0.176-0.208-0.349-0.315-0.519c-0.123-0.196-0.244-0.393-0.375-0.583c-0.137-0.197-0.285-0.384-0.431-0.575
				c-0.201-0.265-0.413-0.521-0.632-0.771c-0.174-0.201-0.349-0.399-0.535-0.59c-0.137-0.141-0.285-0.274-0.429-0.411
				c-0.177-0.166-0.354-0.332-0.54-0.49c-0.149-0.127-0.302-0.255-0.457-0.375c-0.198-0.155-0.401-0.308-0.607-0.453
				c-0.151-0.108-0.3-0.215-0.455-0.316c-0.249-0.163-0.505-0.316-0.763-0.463c-0.122-0.072-0.242-0.146-0.366-0.214
				c-0.38-0.206-0.773-0.396-1.173-0.565c-0.114-0.049-0.232-0.089-0.347-0.136c-0.302-0.12-0.606-0.232-0.918-0.335
				c-0.154-0.05-0.31-0.093-0.465-0.14c-0.286-0.08-0.574-0.156-0.865-0.221c-0.164-0.035-0.327-0.072-0.491-0.103
				c-0.31-0.061-0.622-0.105-0.938-0.143c-0.146-0.021-0.291-0.04-0.438-0.055c-0.463-0.044-0.931-0.073-1.405-0.073
				c-8.238,0-14.916,6.679-14.916,14.915c0,0.557,0.037,1.104,0.095,1.645c0.02,0.169,0.052,0.333,0.078,0.502
				c0.052,0.369,0.112,0.738,0.191,1.098c0.042,0.186,0.093,0.365,0.14,0.547c0.061,0.228,0.111,0.463,0.182,0.685
				c-0.41,0.21-0.805,0.459-1.173,0.768l-11.874,9.962c-0.983,0.826-1.637,1.9-1.953,3.059c-1.178,0.759-2.106,1.921-2.538,3.362
				l-2.234,7.446c-0.964,3.214,0.877,6.631,4.091,7.597h0.001c3.214,0.963,6.633-0.879,7.596-4.091l2.234-7.446
				c0.012-0.042,0.019-0.087,0.031-0.132c0.211-0.135,0.418-0.279,0.614-0.445l11.875-9.964c0.416-0.351,0.769-0.749,1.067-1.175
				c1.964,0.953,4.161,1.5,6.491,1.5c2.232,0,4.342-0.501,6.241-1.383c0.282,0.383,0.605,0.739,0.983,1.058l11.876,9.964
				c0.195,0.166,0.403,0.311,0.614,0.445c0.011,0.045,0.018,0.09,0.031,0.132l2.231,7.446c0.966,3.212,4.384,5.054,7.598,4.091
				h0.001C335.821,399.701,337.664,396.284,336.698,393.07z"/>
		</g>
		<g>
			<path fill="#BE1E2D" stroke="#FFFFFF" stroke-width="6.3492" d="M494.943,438.241c0,32.353-26.471,58.824-58.825,58.824H63.881
				c-32.353,0-58.825-26.472-58.825-58.824l0,0c0-32.354,26.472-58.826,58.825-58.826h372.237
				C468.473,379.415,494.943,405.888,494.943,438.241L494.943,438.241z"/>
			<path fill="#7DCFB6" stroke="#FFFFFF" stroke-width="6.3492" d="M494.943,438.241c0,32.353-26.471,58.824-58.825,58.824H63.881
				c-32.353,0-58.825-26.472-58.825-58.824l0,0c0-32.354,26.472-58.826,58.825-58.826h372.237
				C468.473,379.415,494.943,405.888,494.943,438.241L494.943,438.241z"/>
		</g>
		<g>
			<path fill="#FFFFFF" stroke="#FFFFFF" stroke-width="7.9365" stroke-linecap="round" d="M223.619,385.624
				c-0.433-1.441-1.359-2.604-2.539-3.362c-0.316-1.158-0.969-2.232-1.953-3.059l-11.875-9.962
				c-0.282-0.236-0.583-0.439-0.893-0.617c0.476-1.456,0.741-3.009,0.741-4.626c0-1.495-0.228-2.94-0.637-4.302l0,0l-0.001-0.002
				c-0.07-0.235-0.157-0.461-0.236-0.689c-0.069-0.188-0.134-0.38-0.208-0.563c-0.088-0.225-0.189-0.44-0.288-0.658
				c-0.084-0.184-0.171-0.366-0.263-0.547c-0.107-0.207-0.215-0.413-0.331-0.616c-0.104-0.184-0.217-0.362-0.328-0.542
				c-0.119-0.188-0.237-0.377-0.363-0.563c-0.146-0.209-0.302-0.41-0.457-0.612c-0.191-0.243-0.385-0.483-0.59-0.717
				c-0.183-0.208-0.364-0.414-0.558-0.612c-0.135-0.139-0.278-0.271-0.42-0.404c-0.18-0.17-0.361-0.337-0.549-0.499
				c-0.147-0.126-0.298-0.248-0.45-0.369c-0.202-0.157-0.406-0.312-0.615-0.458c-0.149-0.107-0.296-0.212-0.449-0.312
				c-0.251-0.168-0.51-0.319-0.771-0.469c-0.12-0.071-0.235-0.146-0.358-0.208c-0.381-0.208-0.775-0.397-1.176-0.568
				c-0.112-0.048-0.229-0.088-0.342-0.132c-0.304-0.121-0.609-0.235-0.921-0.338c-0.154-0.05-0.31-0.093-0.465-0.14
				c-0.286-0.08-0.574-0.156-0.865-0.221c-0.163-0.035-0.326-0.072-0.491-0.103c-0.309-0.061-0.623-0.105-0.938-0.145
				c-0.146-0.019-0.29-0.038-0.438-0.053c-0.464-0.044-0.931-0.073-1.406-0.073c-8.238,0-14.915,6.679-14.915,14.915
				c0,0.557,0.037,1.104,0.095,1.645c0.018,0.169,0.053,0.333,0.076,0.502c0.054,0.369,0.113,0.738,0.193,1.098
				c0.041,0.186,0.092,0.365,0.139,0.547c0.06,0.228,0.112,0.463,0.182,0.685c-0.411,0.21-0.806,0.459-1.172,0.768l-11.875,9.962
				c-0.984,0.826-1.637,1.9-1.953,3.059c-1.179,0.759-2.107,1.921-2.539,3.362l-2.232,7.446c-0.965,3.214,0.876,6.631,4.091,7.597
				l0,0c3.215,0.963,6.634-0.879,7.598-4.091l2.232-7.446c0.014-0.042,0.021-0.087,0.034-0.132c0.209-0.135,0.416-0.279,0.612-0.445
				l11.875-9.964c0.417-0.351,0.769-0.749,1.067-1.175c1.965,0.953,4.162,1.5,6.491,1.5c2.233,0,4.342-0.503,6.243-1.383
				c0.282,0.383,0.605,0.739,0.982,1.058l11.875,9.964c0.196,0.166,0.403,0.311,0.613,0.445c0.013,0.045,0.02,0.09,0.033,0.132
				l2.233,7.446c0.964,3.212,4.382,5.054,7.596,4.091h0.001c3.214-0.966,5.055-4.383,4.092-7.597L223.619,385.624z"/>
			<path fill="#FFFFFF" stroke="#FFFFFF" stroke-width="7.9365" stroke-linecap="round" d="M336.698,393.07l-2.234-7.446
				c-0.431-1.441-1.359-2.602-2.538-3.362c-0.316-1.158-0.97-2.232-1.953-3.059l-11.875-9.962c-0.282-0.236-0.585-0.439-0.894-0.617
				c0.475-1.456,0.741-3.009,0.741-4.626c0-1.762-0.321-3.447-0.884-5.018c-0.063-0.179-0.125-0.357-0.194-0.534
				c-0.092-0.229-0.193-0.449-0.296-0.675c-0.082-0.176-0.167-0.351-0.255-0.527c-0.108-0.213-0.22-0.424-0.339-0.632
				c-0.102-0.176-0.208-0.349-0.315-0.519c-0.123-0.196-0.244-0.393-0.375-0.583c-0.137-0.197-0.285-0.384-0.431-0.575
				c-0.201-0.265-0.413-0.521-0.632-0.771c-0.174-0.201-0.349-0.399-0.535-0.59c-0.137-0.141-0.285-0.274-0.429-0.411
				c-0.177-0.166-0.354-0.332-0.54-0.49c-0.149-0.127-0.302-0.255-0.457-0.375c-0.198-0.155-0.401-0.308-0.607-0.453
				c-0.151-0.108-0.3-0.215-0.455-0.316c-0.249-0.163-0.505-0.316-0.763-0.463c-0.122-0.072-0.242-0.146-0.366-0.214
				c-0.38-0.206-0.773-0.396-1.173-0.565c-0.114-0.049-0.232-0.089-0.347-0.136c-0.302-0.12-0.606-0.232-0.918-0.335
				c-0.154-0.05-0.31-0.093-0.465-0.14c-0.286-0.08-0.574-0.156-0.865-0.221c-0.164-0.035-0.327-0.072-0.491-0.103
				c-0.31-0.061-0.622-0.105-0.938-0.143c-0.146-0.021-0.291-0.04-0.438-0.055c-0.463-0.044-0.931-0.073-1.405-0.073
				c-8.238,0-14.916,6.679-14.916,14.915c0,0.557,0.037,1.104,0.095,1.645c0.02,0.169,0.052,0.333,0.078,0.502
				c0.052,0.369,0.112,0.738,0.191,1.098c0.042,0.186,0.093,0.365,0.14,0.547c0.061,0.228,0.111,0.463,0.182,0.685
				c-0.41,0.21-0.805,0.459-1.173,0.768l-11.874,9.962c-0.983,0.826-1.637,1.9-1.953,3.059c-1.178,0.759-2.106,1.921-2.538,3.362
				l-2.234,7.446c-0.964,3.214,0.877,6.631,4.091,7.597h0.001c3.214,0.963,6.633-0.879,7.596-4.091l2.234-7.446
				c0.012-0.042,0.019-0.087,0.031-0.132c0.211-0.135,0.418-0.279,0.614-0.445l11.875-9.964c0.416-0.351,0.769-0.749,1.067-1.175
				c1.964,0.953,4.161,1.5,6.491,1.5c2.232,0,4.342-0.501,6.241-1.383c0.282,0.383,0.605,0.739,0.983,1.058l11.876,9.964
				c0.195,0.166,0.403,0.311,0.614,0.445c0.011,0.045,0.018,0.09,0.031,0.132l2.231,7.446c0.966,3.212,4.384,5.054,7.598,4.091
				h0.001C335.821,399.701,337.664,396.284,336.698,393.07z"/>
		</g>
		<circle fill="#FFFFFF" cx="40.956" cy="438.241" r="18.482"/>
		<circle fill="#FFFFFF" cx="461.288" cy="438.241" r="18.482"/>
		<path fill="#231F20" d="M462.325,425.794c2.218,1.835,3.632,4.605,3.632,7.709c0,5.521-4.476,9.996-9.996,9.996
			c-2.53,0-4.83-0.945-6.591-2.493c1.329,5.357,6.154,9.335,11.924,9.335c6.792,0,12.298-5.507,12.298-12.3
			C473.592,431.597,468.635,426.319,462.325,425.794z"/>
		<polygon fill="#231F20" points="40.956,429.895 47.546,423.804 46.893,432.754 55.764,434.107 48.359,439.179 52.83,446.959 
			44.25,444.33 40.956,452.676 37.661,444.33 29.081,446.959 33.552,439.179 26.147,434.107 35.017,432.754 34.365,423.804 		"/>
		<polygon fill="#7A7A7A" points="393.771,126.929 387.977,158.945 380.049,137.296 387.977,128.451 		"/>
		<polygon fill="#7A7A7A" points="102.558,122.964 114.45,138.515 106.216,157.422 100.728,137.6 		"/>
		<linearGradient id="SVGID_1_" gradientUnits="userSpaceOnUse" x1="102.2397" y1="220.3262" x2="391.0552" y2="220.3262">
			<stop  offset="0" style="stop-color:#D6D6D6"/>
			<stop  offset="1" style="stop-color:#7A7A7A"/>
		</linearGradient>
		<path fill="url(#SVGID_1_)" stroke="#231F20" stroke-width="6.3492" d="M246.652,367.388c0,0,41.693,2.349,63.049-14.953
			c21.355-17.299,81.354-88.133,81.354-162.28c0-74.144-55.931-116.996-144.403-116.996h-0.009
			c-88.472,0-144.403,42.853-144.403,116.996c0,74.147,59.999,144.981,81.354,162.28c21.355,17.302,63.049,14.953,63.049,14.953
			H246.652z"/>
		<path fill="#231F20" stroke="#231F20" stroke-width="6.3492" d="M106.678,238.077c-34.027-2.532,4.213,101.541,23.612,103.671
			C135.191,342.288,110.283,238.344,106.678,238.077z"/>
		<path fill="#231F20" stroke="#231F20" stroke-width="6.3492" d="M383.769,238.077c34.029-2.532-4.213,101.541-23.611,103.671
			C355.256,342.288,380.163,238.344,383.769,238.077z"/>
		<path fill="#231F20" d="M257.269,91.123c-8.471,0.115-16.488,0.522-24.038,1.184c0.518,0.865,0.863,1.782,0.957,2.756
			c0.599,6.317-8.55,12.354-20.438,13.483c-11.452,1.09-21.243-2.779-22.482-8.711c-30.448,9.131-44.613,24.298-38.743,40.103
			c6.579,17.386,87.948,7.266,95.023,88.835c16.503-83.829,102.045-64.237,102.373-95.909
			C350.211,104.6,305.07,90.467,257.269,91.123z"/>
		<path fill="#231F20" d="M246.656,235.621h-0.017c-0.829-62.734-93.466-86.4-111.638-66.96
			c-12.885,13.785-13.624,27.263-12.285,47.341c4.495,67.417,56.076,121.279,74.546,137.064
			c18.471,15.787,54.532,13.642,54.532,13.642h0.006c0,0,36.062,2.146,54.532-13.642c18.472-15.785,70.365-80.422,70.365-148.071
			c0-21.816-5.039-40.659-14.422-56.185C321.368,169.215,247.542,168.616,246.656,235.621z"/>
		<path fill="none" stroke="#FFFFFF" stroke-width="0.7937" stroke-dasharray="7.1429" d="M245.075,25.237"/>
		
			<ellipse transform="matrix(-0.8202 -0.5721 0.5721 -0.8202 186.6622 304.1493)" fill="#231F20" cx="141.126" cy="122.742" rx="4.735" ry="8.49"/>
		
			<ellipse transform="matrix(-0.5126 -0.8586 0.8586 -0.5126 133.0315 301.4087)" fill="#231F20" cx="152.064" cy="112.946" rx="2.152" ry="3.858"/>
		<g>
			<path fill="#231F20" d="M176.062,167.209c-15.532,5.042-26.767,19.625-26.767,36.84c0,21.392,17.343,38.735,38.736,38.735
				c21.394,0,38.735-17.344,38.735-38.735c0-7.955-2.401-15.346-6.513-21.497C209.817,176.037,193.564,171.706,176.062,167.209z"/>
			<line fill="none" stroke="#7A7A7A" stroke-width="2.381" x1="152.966" y1="206.544" x2="197.029" y2="169.944"/>
			<line fill="none" stroke="#7A7A7A" stroke-width="2.381" x1="179.77" y1="239.199" x2="226.53" y2="199.48"/>
			<line fill="none" stroke="#7A7A7A" stroke-width="7.9365" x1="166.83" y1="233.17" x2="222.379" y2="187.029"/>
			<path fill="#7A7A7A" stroke="#231F20" stroke-width="1.5873" d="M159.521,205.968c0-16.758,10.644-31.017,25.534-36.416
				c-2.945-0.784-5.948-1.562-8.993-2.343c-15.532,5.042-26.767,19.625-26.767,36.84c0,20.734,16.295,37.664,36.776,38.685
				C170.651,237.627,159.521,223.101,159.521,205.968z"/>
			<path fill="none" stroke="#7A7A7A" stroke-width="2.381" d="M176.062,167.209c-15.532,5.042-26.767,19.625-26.767,36.84
				c0,21.392,17.343,38.735,38.736,38.735c21.394,0,38.735-17.344,38.735-38.735c0-7.955-2.401-15.346-6.513-21.497
				C209.817,176.037,193.564,171.706,176.062,167.209z"/>
		</g>
		<g>
			<path fill="#231F20" d="M319.423,167.209c15.533,5.042,26.767,19.625,26.767,36.84c0,21.392-17.343,38.735-38.736,38.735
				c-21.393,0-38.735-17.344-38.735-38.735c0-7.955,2.401-15.346,6.514-21.497C285.669,176.037,301.922,171.706,319.423,167.209z"/>
			<line fill="none" stroke="#7A7A7A" stroke-width="2.381" x1="271.653" y1="211.084" x2="319.233" y2="171.559"/>
			<line fill="none" stroke="#7A7A7A" stroke-width="2.381" x1="295.407" y1="239.661" x2="339.469" y2="203.063"/>
			<line fill="none" stroke="#7A7A7A" stroke-width="7.9365" x1="274.541" y1="223.506" x2="328.116" y2="179.003"/>
			<path fill="#7A7A7A" stroke="#231F20" stroke-width="1.5873" d="M335.964,205.968c0-16.758-10.644-31.017-25.533-36.416
				c2.944-0.784,5.947-1.562,8.992-2.343c15.533,5.042,26.767,19.625,26.767,36.84c0,20.734-16.294,37.664-36.777,38.685
				C324.835,237.627,335.964,223.101,335.964,205.968z"/>
			<path fill="none" stroke="#7A7A7A" stroke-width="2.381" d="M319.423,167.209c15.533,5.042,26.767,19.625,26.767,36.84
				c0,21.392-17.343,38.735-38.736,38.735c-21.393,0-38.735-17.344-38.735-38.735c0-7.955,2.401-15.346,6.514-21.497
				C285.669,176.037,301.922,171.706,319.423,167.209z"/>
		</g>
		<g>
			<path fill="#7A7A7A" d="M140.602,185.751c0.538,0.09,1.061,0.036,1.548-0.114c-1.61-0.483-2.651-2.092-2.364-3.788
				c0.221-1.307,1.169-2.298,2.355-2.66c-0.135-0.042-0.268-0.09-0.41-0.113c-1.842-0.312-3.589,0.928-3.902,2.773
				C137.517,183.69,138.759,185.438,140.602,185.751z"/>
			<path fill="#7A7A7A" d="M137.388,199.104c0.206-0.023,0.402-0.07,0.593-0.128c-1.252-0.382-2.221-1.475-2.376-2.857
				c-0.186-1.654,0.855-3.154,2.393-3.613c-0.429-0.133-0.889-0.182-1.363-0.129c-1.859,0.208-3.195,1.881-2.988,3.742
				C133.854,197.977,135.53,199.312,137.388,199.104z"/>
			<path fill="#7A7A7A" d="M135.552,211.468c-0.722-1.727,0.093-3.708,1.818-4.429c0.107-0.045,0.219-0.067,0.328-0.101
				c-0.728-0.223-1.528-0.217-2.285,0.101c-1.726,0.721-2.54,2.702-1.819,4.429c0.675,1.616,2.458,2.415,4.099,1.918
				C136.762,213.102,135.955,212.434,135.552,211.468z"/>
			<path fill="#7A7A7A" d="M139.627,225.755c-1.168-1.459-0.93-3.588,0.53-4.757c0.35-0.276,0.737-0.47,1.138-0.592
				c-1.029-0.312-2.19-0.131-3.094,0.592c-1.46,1.169-1.698,3.298-0.531,4.757c0.888,1.112,2.334,1.509,3.618,1.125
				C140.655,226.688,140.07,226.312,139.627,225.755z"/>
			<path fill="#7A7A7A" d="M147.245,238.1c-1.517-1.094-1.856-3.208-0.762-4.725c0.452-0.623,1.079-1.038,1.763-1.244
				c-1.344-0.406-2.852,0.044-3.719,1.244c-1.096,1.517-0.755,3.631,0.759,4.725c0.892,0.646,1.988,0.781,2.965,0.484
				C147.9,238.479,147.557,238.326,147.245,238.1z"/>
			<path fill="#7A7A7A" d="M147.198,174.021c0.791,0.371,1.647,0.398,2.42,0.164c-0.156-0.048-0.311-0.093-0.463-0.164
				c-1.69-0.794-2.419-2.811-1.624-4.504c0.424-0.902,1.199-1.518,2.083-1.788c-1.583-0.479-3.316,0.247-4.04,1.788
				C144.779,171.211,145.507,173.228,147.198,174.021z"/>
			<path fill="#7A7A7A" d="M159.827,165.177c-0.435-0.131-0.851-0.349-1.218-0.664c-1.418-1.215-1.584-3.354-0.368-4.772
				c0.438-0.511,0.998-0.854,1.597-1.035c-1.246-0.376-2.652-0.017-3.554,1.035c-1.218,1.419-1.051,3.558,0.367,4.772
				C157.561,165.289,158.76,165.497,159.827,165.177z"/>
			<path fill="#7A7A7A" d="M238.285,207.236c0.024-0.006,0.043-0.019,0.064-0.025c-1.068-0.322-1.955-1.162-2.28-2.317
				c-0.499-1.777,0.52-3.617,2.278-4.149c-0.597-0.182-1.248-0.206-1.893-0.024c-1.799,0.506-2.849,2.374-2.342,4.174
				C234.617,206.692,236.487,207.741,238.285,207.236z"/>
			<path fill="#7A7A7A" d="M228.509,229.646c0.331-1.145,1.213-1.972,2.273-2.295c-0.014-0.004-0.025-0.012-0.039-0.016
				c-1.796-0.521-3.673,0.516-4.192,2.311c-0.52,1.798,0.515,3.674,2.31,4.192c0.651,0.188,1.313,0.166,1.917-0.017
				C229.011,233.286,227.994,231.428,228.509,229.646z"/>
			<path fill="#7A7A7A" d="M209.557,251.167c-1.277-1.364-1.207-3.508,0.161-4.785c0.391-0.366,0.85-0.609,1.33-0.753
				c-1.117-0.339-2.375-0.102-3.288,0.753c-1.365,1.277-1.436,3.421-0.159,4.785c0.911,0.975,2.257,1.276,3.453,0.915
				C210.501,251.916,209.98,251.619,209.557,251.167z"/>
			<path fill="#7A7A7A" d="M157.795,247.918c-1.75-0.654-2.637-2.606-1.983-4.36c0.384-1.022,1.216-1.739,2.188-2.036
				c-1.693-0.514-3.515,0.358-4.145,2.036c-0.656,1.754,0.233,3.706,1.982,4.36c0.726,0.271,1.481,0.267,2.167,0.057
				C157.937,247.952,157.865,247.944,157.795,247.918z"/>
			<path fill="#7A7A7A" d="M233.958,218.02c0.013-1.517,1.027-2.779,2.407-3.197c-0.304-0.094-0.62-0.16-0.953-0.161
				c-1.869-0.017-3.396,1.49-3.411,3.358c-0.014,1.869,1.489,3.396,3.359,3.411c0.351,0.002,0.683-0.064,1.003-0.161
				C234.966,220.845,233.946,219.556,233.958,218.02z"/>
			<path fill="#7A7A7A" d="M221.368,243.928c-1.593-0.974-2.094-3.061-1.117-4.654c0.451-0.736,1.142-1.227,1.908-1.459
				c-1.438-0.439-3.045,0.117-3.867,1.459c-0.976,1.594-0.475,3.681,1.119,4.654c0.858,0.527,1.853,0.609,2.746,0.342
				C221.886,244.186,221.62,244.082,221.368,243.928z"/>
			<path fill="#7A7A7A" d="M167.613,250.963c0.123-1.422,1.111-2.557,2.4-2.943c-0.222-0.067-0.454-0.116-0.693-0.136
				c-1.862-0.161-3.502,1.218-3.665,3.079c-0.162,1.864,1.216,3.506,3.079,3.667c0.441,0.039,0.865-0.015,1.265-0.135
				C168.5,254.04,167.472,252.586,167.613,250.963z"/>
			<path fill="#7A7A7A" d="M195.988,255.02c-0.856-1.662-0.204-3.705,1.457-4.562c0.187-0.097,0.379-0.169,0.573-0.229
				c-0.811-0.245-1.715-0.191-2.53,0.229c-1.662,0.856-2.314,2.899-1.458,4.562c0.761,1.475,2.452,2.149,3.985,1.686
				C197.168,256.447,196.424,255.868,195.988,255.02z"/>
			<path fill="#7A7A7A" d="M181.35,254.979c-0.335-1.723,0.703-3.379,2.347-3.876c-0.514-0.157-1.068-0.209-1.631-0.1
				c-1.835,0.36-3.031,2.14-2.673,3.976c0.36,1.835,2.137,3.029,3.971,2.673c0.114-0.021,0.218-0.064,0.327-0.099
				C182.534,257.199,181.599,256.25,181.35,254.979z"/>
		</g>
		<g>
			<path fill="#7A7A7A" d="M265.995,234.398c-1.795,0.521-3.672-0.515-4.192-2.311c-0.319-1.105-0.048-2.239,0.625-3.071
				c-1.792,0.522-2.825,2.397-2.306,4.191c0.521,1.796,2.396,2.831,4.193,2.31c0.691-0.198,1.265-0.603,1.686-1.121
				C265.998,234.396,265.996,234.398,265.995,234.398z"/>
			<path fill="#7A7A7A" d="M296.267,257.041c-1.661-0.86-2.312-2.902-1.457-4.566c0.107-0.203,0.231-0.393,0.37-0.568
				c-0.854,0.254-1.609,0.838-2.05,1.692c-0.856,1.66-0.205,3.705,1.457,4.562c1.456,0.749,3.203,0.34,4.19-0.89
				C297.969,257.507,297.076,257.454,296.267,257.041z"/>
			<path fill="#7A7A7A" d="M282.472,251.888c-1.305-1.223-1.413-3.224-0.307-4.591c-0.567,0.162-1.101,0.463-1.532,0.925
				c-1.278,1.365-1.207,3.506,0.157,4.786c1.366,1.277,3.508,1.209,4.786-0.158c0.057-0.062,0.097-0.132,0.148-0.195
				C284.615,252.974,283.375,252.732,282.472,251.888z"/>
			<path fill="#7A7A7A" d="M270.792,243.369c-0.768-1.252-0.611-2.8,0.261-3.883c-0.282,0.081-0.56,0.188-0.822,0.351
				c-1.596,0.976-2.095,3.059-1.121,4.652c0.977,1.596,3.062,2.097,4.656,1.118c0.34-0.208,0.621-0.474,0.858-0.771
				C273.193,245.256,271.607,244.703,270.792,243.369z"/>
			<path fill="#7A7A7A" d="M355.223,194.171c-1.273,0.369-2.266,1.475-2.42,2.875c-0.209,1.857,1.129,3.531,2.986,3.741
				c1.188,0.132,2.296-0.371,3-1.235c-0.416,0.121-0.862,0.167-1.319,0.115c-1.857-0.212-3.196-1.885-2.986-3.742
				C354.558,195.256,354.827,194.658,355.223,194.171z"/>
			<path fill="#7A7A7A" d="M348.673,184.658c0.311,1.844,2.058,3.084,3.901,2.771c0.849-0.142,1.561-0.601,2.062-1.226
				c-0.126,0.039-0.248,0.085-0.381,0.105c-1.843,0.312-3.59-0.929-3.901-2.773c-0.169-0.991,0.124-1.947,0.708-2.677
				C349.438,181.337,348.381,182.948,348.673,184.658z"/>
			<path fill="#7A7A7A" d="M258.448,207.775c-0.592,0.176-1.237,0.2-1.877,0.021c-1.799-0.505-2.848-2.375-2.343-4.176
				c0.129-0.451,0.341-0.854,0.617-1.2c-1.076,0.321-1.97,1.16-2.297,2.321c-0.505,1.8,0.542,3.669,2.342,4.173
				C256.238,209.296,257.625,208.803,258.448,207.775z"/>
			<path fill="#7A7A7A" d="M260.414,221.841c-0.293,0.086-0.596,0.148-0.916,0.149c-1.871,0.017-3.396-1.488-3.413-3.358
				c-0.005-0.814,0.288-1.552,0.763-2.142c-1.417,0.413-2.455,1.713-2.443,3.263c0.014,1.868,1.541,3.373,3.412,3.357
				C258.873,223.104,259.798,222.604,260.414,221.841z"/>
			<path fill="#7A7A7A" d="M326.123,255.193c-1.863,0.16-3.503-1.219-3.666-3.084c-0.078-0.91,0.215-1.765,0.747-2.421
				c-1.521,0.441-2.57,1.905-2.428,3.542c0.164,1.864,1.804,3.242,3.666,3.082c0.953-0.084,1.774-0.557,2.332-1.243
				C326.563,255.129,326.347,255.173,326.123,255.193z"/>
			<path fill="#7A7A7A" d="M352.429,226.849c-1.459-1.168-1.697-3.297-0.53-4.761c0.003-0.003,0.006-0.005,0.008-0.007
				c-0.643,0.189-1.239,0.565-1.689,1.128c-1.166,1.462-0.929,3.592,0.531,4.76c1.457,1.164,3.581,0.93,4.75-0.523
				C354.475,227.745,353.326,227.562,352.429,226.849z"/>
			<path fill="#7A7A7A" d="M344.846,237.9c-0.914-1.266-0.816-2.941,0.12-4.102c-0.364,0.106-0.718,0.262-1.04,0.494
				c-1.516,1.098-1.856,3.213-0.761,4.729c1.094,1.515,3.21,1.855,4.726,0.76c0.25-0.181,0.457-0.396,0.642-0.625
				C347.196,239.544,345.707,239.093,344.846,237.9z"/>
			<path fill="#7A7A7A" d="M311.491,258.212c-1.835-0.359-3.03-2.137-2.672-3.974c0.109-0.559,0.363-1.052,0.699-1.467
				c-1.176,0.344-2.128,1.302-2.381,2.588c-0.358,1.836,0.838,3.613,2.674,3.973c1.273,0.248,2.508-0.263,3.271-1.207
				C312.58,258.271,312.04,258.318,311.491,258.212z"/>
			<path fill="#7A7A7A" d="M356.834,213.845c-1.725-0.718-2.539-2.701-1.819-4.427c0.127-0.304,0.304-0.566,0.5-0.812
				c-0.946,0.28-1.771,0.95-2.18,1.934c-0.72,1.724,0.093,3.707,1.818,4.425c1.423,0.595,3.009,0.136,3.929-1.009
				C358.366,214.167,357.577,214.156,356.834,213.845z"/>
			<path fill="#7A7A7A" d="M345.979,175.703c0.481-0.228,0.874-0.562,1.186-0.948c-1.572,0.461-3.289-0.268-4.009-1.798
				c-0.568-1.212-0.347-2.58,0.438-3.557c-0.165,0.048-0.333,0.098-0.494,0.175c-1.691,0.795-2.419,2.811-1.624,4.501
				C342.271,175.77,344.288,176.497,345.979,175.703z"/>
			<path fill="#7A7A7A" d="M334.661,246.497c-0.434-1.16-0.181-2.402,0.542-3.302c-0.08,0.023-0.16,0.032-0.24,0.063
				c-1.75,0.656-2.639,2.608-1.983,4.356c0.657,1.75,2.608,2.638,4.359,1.983c0.591-0.22,1.072-0.599,1.44-1.058
				C337.092,249.036,335.287,248.165,334.661,246.497z"/>
			<path fill="#7A7A7A" d="M336.525,166.195c0.16-0.14,0.299-0.29,0.427-0.449c-1.238,0.36-2.626,0.002-3.519-1.041
				c-1.079-1.262-1.067-3.078-0.06-4.325c-0.448,0.131-0.877,0.351-1.253,0.672c-1.42,1.218-1.585,3.354-0.369,4.772
				C332.968,167.244,335.104,167.41,336.525,166.195z"/>
		</g>
		<g>
			<path fill="#7A7A7A" d="M247.795,117.246c-0.327-0.094-0.663-0.161-1.018-0.161c-2.148,0-3.891,1.824-3.891,4.074
				c0,2.247,1.743,4.071,3.891,4.071c0.181,0,0.353-0.033,0.527-0.059c-1.652-0.47-2.873-2.033-2.873-3.909
				C244.433,119.201,245.898,117.517,247.795,117.246z"/>
			<path fill="#7A7A7A" d="M246.778,178.657c0.181,0,0.353-0.032,0.528-0.055c-1.653-0.472-2.874-2.035-2.874-3.913
				c0-2.06,1.465-3.744,3.363-4.016c-0.327-0.094-0.663-0.16-1.018-0.16c-2.148,0-3.891,1.823-3.891,4.072
				S244.629,178.657,246.778,178.657z"/>
			<path fill="#7A7A7A" d="M247.795,143.961c-0.326-0.095-0.662-0.161-1.018-0.161c-2.148,0-3.891,1.825-3.891,4.073
				c0,2.249,1.743,4.07,3.891,4.07c0.181,0,0.353-0.031,0.528-0.056c-1.653-0.47-2.874-2.034-2.874-3.912
				C244.433,145.916,245.898,144.232,247.795,143.961z"/>
			<path fill="#7A7A7A" d="M246.778,165.299c0.181,0,0.353-0.028,0.528-0.056c-1.653-0.468-2.874-2.033-2.874-3.909
				c0-2.062,1.465-3.747,3.363-4.018c-0.326-0.093-0.662-0.157-1.018-0.157c-2.148,0-3.891,1.82-3.891,4.07
				C242.887,163.479,244.629,165.299,246.778,165.299z"/>
			<path fill="#7A7A7A" d="M246.778,98.517c0.181,0,0.354-0.032,0.528-0.056c-1.653-0.473-2.873-2.036-2.873-3.914
				c0-2.059,1.464-3.743,3.362-4.017c-0.326-0.092-0.662-0.158-1.018-0.158c-2.148,0-3.891,1.823-3.891,4.07
				C242.887,96.691,244.629,98.517,246.778,98.517z"/>
			<path fill="#7A7A7A" d="M244.433,188.047c0-2.062,1.465-3.746,3.363-4.018c-0.327-0.093-0.663-0.159-1.018-0.159
				c-2.148,0-3.891,1.823-3.891,4.074c0,2.247,1.743,4.07,3.891,4.07c0.181,0,0.353-0.033,0.528-0.057
				C245.653,191.487,244.433,189.924,244.433,188.047z"/>
			<path fill="#7A7A7A" d="M246.778,138.588c0.18,0,0.353-0.033,0.527-0.057c-1.652-0.472-2.873-2.034-2.873-3.911
				c0-2.061,1.465-3.746,3.363-4.018c-0.328-0.094-0.665-0.159-1.018-0.159c-2.148,0-3.892,1.824-3.892,4.07
				C242.886,136.765,244.629,138.588,246.778,138.588z"/>
			<path fill="#7A7A7A" d="M246.778,111.872c0.181,0,0.353-0.03,0.528-0.057c-1.653-0.47-2.874-2.033-2.874-3.912
				c0-2.059,1.465-3.744,3.363-4.014c-0.326-0.095-0.662-0.16-1.018-0.16c-2.149,0-3.892,1.823-3.892,4.071
				C242.886,110.051,244.628,111.872,246.778,111.872z"/>
		</g>
		<path fill="#231F20" stroke="#231F20" stroke-width="6.3492" d="M106.678,238.077c-34.027-2.532,4.213,101.541,23.612,103.671
			C135.191,342.288,110.283,238.344,106.678,238.077z"/>
		<path fill="#231F20" stroke="#231F20" stroke-width="6.3492" d="M383.769,238.077c34.029-2.532-4.213,101.541-23.611,103.671
			C355.256,342.288,380.163,238.344,383.769,238.077z"/>
		<path fill="#7A7A7A" d="M377.424,256.052c-8.311,29.782-20.879,86.092-17.267,85.696c1.697-0.186,3.54-1.167,5.464-2.773
			C366.73,320.697,372.637,280.965,377.424,256.052z"/>
		<path fill="#7A7A7A" d="M107.451,239.023c-0.315-0.592-0.576-0.933-0.773-0.946c-29.914-2.227-3.979,77.925,15.911,98.785
			C106.017,315.471,88.426,247.865,107.451,239.023z"/>
		<path fill="#7A7A7A" d="M105.323,242.828c-0.327-0.093-0.664-0.157-1.017-0.157c-2.148,0-3.892,1.822-3.892,4.072
			c0,2.247,1.744,4.07,3.892,4.07c0.181,0,0.354-0.033,0.528-0.055c-1.652-0.472-2.874-2.036-2.874-3.913
			C101.96,244.786,103.426,243.102,105.323,242.828z"/>
		<path fill="#7A7A7A" d="M390.063,244.356c-0.326-0.095-0.663-0.161-1.017-0.161c-2.149,0-3.892,1.824-3.892,4.073
			c0,2.248,1.743,4.071,3.892,4.071c0.181,0,0.354-0.03,0.528-0.055c-1.652-0.471-2.874-2.038-2.874-3.915
			C386.701,246.312,388.167,244.627,390.063,244.356z"/>
		<g>
			<path fill="#7A7A7A" d="M216.308,327.123c0,8.223-6.157,14.055-13.753,13.029c-7.595-1.028-13.751-8.529-13.751-16.752
				s6.157-14.056,13.751-13.03C210.15,311.399,216.308,318.899,216.308,327.123z"/>
			<g>
				<g>
					<line fill="none" stroke="#231F20" stroke-width="1.5873" x1="188.922" y1="329.135" x2="220.161" y2="335.153"/>
				</g>
				<g>
					<line fill="none" stroke="#231F20" stroke-width="1.5873" x1="188.922" y1="325.96" x2="220.161" y2="331.979"/>
				</g>
				<g>
					<line fill="none" stroke="#231F20" stroke-width="1.5873" x1="188.922" y1="322.785" x2="220.161" y2="328.804"/>
				</g>
				<g>
					<line fill="none" stroke="#231F20" stroke-width="1.5873" x1="188.922" y1="319.61" x2="220.161" y2="325.629"/>
				</g>
				<g>
					<line fill="none" stroke="#231F20" stroke-width="1.5873" x1="188.922" y1="316.436" x2="220.161" y2="322.454"/>
				</g>
				<g>
					<line fill="none" stroke="#231F20" stroke-width="1.5873" x1="188.922" y1="313.261" x2="220.161" y2="319.279"/>
				</g>
				<g>
					<line fill="none" stroke="#231F20" stroke-width="1.5873" x1="188.922" y1="310.086" x2="220.161" y2="316.104"/>
				</g>
			</g>
			<path fill="#231F20" d="M205.076,337.422c-6.712-0.91-12.155-7.539-12.155-14.803c0-4.867,2.445-8.773,6.072-10.561
				c-5.336,0.666-9.308,5.316-9.308,11.521c0,7.268,5.441,13.896,12.153,14.805c2.219,0.3,4.292-0.075,6.083-0.955
				C207.006,337.541,206.058,337.552,205.076,337.422z"/>
			<path fill="none" stroke="#7A7A7A" stroke-width="3.1746" d="M216.308,327.123c0,8.223-6.157,14.055-13.753,13.029
				c-7.595-1.028-13.751-8.529-13.751-16.752s6.157-14.056,13.751-13.03C210.15,311.399,216.308,318.899,216.308,327.123z"/>
		</g>
		<g>
			<path fill="#7A7A7A" d="M244.67,337.294c0,5.141-3.847,8.786-8.594,8.143c-4.745-0.642-8.594-5.326-8.594-10.467
				c0-5.139,3.849-8.782,8.594-8.142C240.823,327.473,244.67,332.157,244.67,337.294z"/>
			<path fill="#231F20" d="M237.589,342.155c-3.323-0.451-6.018-3.733-6.018-7.33c0-2.409,1.211-4.344,3.007-5.227
				c-2.642,0.328-4.609,2.632-4.609,5.704c0,3.596,2.695,6.878,6.017,7.326c1.1,0.152,2.125-0.035,3.013-0.474
				C238.545,342.215,238.075,342.221,237.589,342.155z"/>
		</g>
		<circle fill-rule="evenodd" clip-rule="evenodd" fill="#FFFFFF" cx="119.982" cy="164.341" r="6.734"/>
		<path fill="none" stroke="#FFFFFF" stroke-width="0.7937" stroke-dasharray="7.1429" d="M245.075,417.102"/>
		<path fill="none" stroke="#231F20" stroke-width="6.3492" stroke-linecap="round" stroke-linejoin="round" d="M105.826,157.34
			c-5.403-15.184-7.054-41.189-7.054-41.189c24.947,63.904,146.676,29.391,147.868,119.471"/>
		<path fill="none" stroke="#231F20" stroke-width="6.3492" stroke-linecap="round" stroke-linejoin="round" d="M246.496,235.621
			c1.19-90.08,122.92-55.566,147.867-119.471c0,0-1.65,26.006-7.054,41.189"/>
		<path fill="#231F20" d="M258.738,244.064c0,7.539-6.11,37.533-13.649,37.533c-7.539,0-13.649-29.994-13.649-37.533
			s6.111-13.65,13.649-13.65C252.628,230.414,258.738,236.525,258.738,244.064z"/>
		<path fill="#7A7A7A" d="M241.305,244.627c0.972-6.225,6.014-10.795,11.994-11.45c-2.287-1.726-5.124-2.763-8.21-2.763
			c-7.539,0-13.649,6.111-13.649,13.65s6.111,37.533,13.649,37.533c0.313,0,0.621-0.067,0.928-0.168
			C241.188,273.896,240.32,250.943,241.305,244.627z"/>
		<circle fill="#FFFFFF" cx="237.24" cy="241.155" r="3.023"/>
		<path fill="none" stroke="#FFFFFF" stroke-width="0.7937" stroke-dasharray="7.1429" d="M245.075,417.102"/>
		
			<use xlink:href="#claw"  width="88.94" height="68.885" x="-44.47" y="-34.443" transform="matrix(0.8288 0 0 -0.8288 192.019 375.1406)" overflow="visible"/>
		
			<use xlink:href="#claw"  width="88.94" height="68.885" x="-44.47" y="-34.443" transform="matrix(0.8288 0 0 -0.8288 302.9116 375.1406)" overflow="visible"/>
		<g>
			<path fill="#FFFFFF" d="M73.96,413.044h11.45l9.659,30.38h0.234l-1.247-8.803v-21.577h9.737v50.243H92.344l-9.659-30.302h-0.312
				l1.247,8.725v21.577H73.96V413.044z"/>
			<path fill="#FFFFFF" d="M109.327,409.383v-9.659h9.659v9.659H109.327z M109.327,413.044h9.659v50.243h-9.659V413.044z"/>
			<path fill="#FFFFFF" d="M152.17,425.741v3.505h-9.737v-3.505c0-2.337-1.792-4.129-4.128-4.129c-2.259,0-4.128,1.792-4.128,4.129
				v25.083c0,2.259,1.869,4.128,4.128,4.128c2.337,0,4.128-1.869,4.128-4.128v-8.023h-4.518v-9.504h14.255v17.527
				c0,7.634-6.232,13.787-13.866,13.787s-13.788-6.153-13.788-13.787v-25.083c0-7.634,6.154-13.788,13.788-13.788
				S152.17,418.107,152.17,425.741z"/>
			<path fill="#FFFFFF" d="M167.362,433.375h8.257v-20.331h9.737v50.243h-9.737v-20.253h-8.257v20.253h-9.659v-50.243h9.659V433.375
				z"/>
			<path fill="#FFFFFF" d="M189.331,413.044h27.653v9.659h-9.036v40.584h-9.659v-40.584h-8.958V413.044z"/>
			<path fill="#FFFFFF" d="M220.957,413.044h9.659v40.584h17.994v9.659h-27.653V413.044z"/>
			<path fill="#FFFFFF" d="M262.321,447.786v15.501h-10.048v-15.501l-9.036-34.742h10.36l2.96,14.723l0.701,7.166h0.156l0.701-7.166
				l2.882-14.723h10.438L262.321,447.786z"/>
			<path fill="#FFFFFF" d="M315.604,448.643v0.856c0,7.635-6.232,13.788-13.866,13.788h-13.788v-50.243h13.788
				c7.634,0,13.866,6.154,13.866,13.788v0.856c0,4.206-1.947,7.945-4.908,10.438C313.657,440.697,315.604,444.437,315.604,448.643z
				 M297.61,433.375h4.128c2.337,0,4.128-1.947,4.128-4.284v-2.259c0-2.26-1.792-4.129-4.128-4.129c-2.259,0-4.128,0-4.128,0
				V433.375z M305.867,449.499v-2.259c0-2.337-1.792-4.284-4.128-4.284h-4.128v10.672c0,0,1.869,0,4.128,0
				C304.075,453.628,305.867,451.759,305.867,449.499z"/>
			<path fill="#FFFFFF" d="M330.795,413.044v37.78c0,2.259,1.869,4.128,4.128,4.128c2.337,0,4.128-1.869,4.128-4.128v-37.78h9.737
				v37.78c0,7.634-6.232,13.787-13.866,13.787s-13.788-6.153-13.788-13.787v-37.78H330.795z"/>
			<path fill="#FFFFFF" d="M354.322,409.383v-9.659h9.659v9.659H354.322z M354.322,413.044h9.659v50.243h-9.659V413.044z"/>
			<path fill="#FFFFFF" d="M369.512,413.044h9.659v40.584h17.994v9.659h-27.653V413.044z"/>
			<path fill="#FFFFFF" d="M427.235,449.499c0,7.635-6.232,13.788-13.866,13.788h-13.788v-50.243h13.788
				c7.634,0,13.866,6.154,13.866,13.788V449.499z M417.498,449.499v-2.259c0-0.545,0-20.408,0-20.408
				c0-2.26-1.792-4.129-4.128-4.129c-2.259,0-4.128,0-4.128,0v6.388v4.284v9.581v5.687v4.985c0,0,1.869,0,4.128,0
				C415.706,453.628,417.498,451.759,417.498,449.499z"/>
		</g>
	</g>
</g>
</svg>
