<?xml version="1.0" encoding="utf-8"?>
<svg version="1.1" id="Layer_1" xmlns="http://www.w3.org/2000/svg" xmlns:xlink="http://www.w3.org/1999/xlink" x="0px" y="0px"
	 viewBox="79 11 358 180" style="enable-background:new 79 11 358 180;" xml:space="preserve">
<path fill="#004653" d="M436.3,191h-86.4v-1.1c0-2-1.5-3.7-3.4-3.8c-2.1-0.1-3.8,1.5-3.8,3.6v1.3H79V11h263.7v1.1c0,2,1.5,3.7,3.4,3.8
	c2.1,0.1,3.8-1.5,3.8-3.6V11h86.4v65.4h-0.8c-13.3,0-24.5,10.9-24.2,24.2c0.3,12.9,10.8,23.2,23.7,23.2h1.3c0,0,0,47.1,0,62.8
	C436.3,189.1,436.3,191,436.3,191z M352.4,188.4H432c0.9,0,1.7-0.8,1.7-1.7v-60.2c-13.9-0.7-25-12.2-25-26.3s11.1-25.6,25-26.3V15.3
	c0-0.9-0.8-1.7-1.7-1.7h-79.6c-0.6,2.8-3.1,4.9-6.1,4.9s-5.5-2.1-6.1-4.9H83.3c-0.9,0-1.7,0.8-1.7,1.7v171.4c0,0.9,0.8,1.7,1.7,1.7
	h256.9c0.6-2.8,3.1-4.9,6.1-4.9S351.8,185.6,352.4,188.4z M346.3,179.8c-3.4,0-6.2-2.8-6.2-6.2s2.8-6.2,6.2-6.2
	c3.4,0,6.2,2.8,6.2,6.2S349.7,179.8,346.3,179.8z M346.3,170c-2,0-3.6,1.6-3.6,3.6s1.6,3.6,3.6,3.6s3.6-1.6,3.6-3.6
	S348.3,170,346.3,170z M346.3,163.7c-3.4,0-6.2-2.8-6.2-6.2s2.8-6.2,6.2-6.2c3.4,0,6.2,2.8,6.2,6.2S349.7,163.7,346.3,163.7z
	 M346.3,153.8c-2,0-3.6,1.6-3.6,3.6s1.6,3.6,3.6,3.6s3.6-1.6,3.6-3.6C349.9,155.5,348.3,153.8,346.3,153.8z M346.3,147.5
	c-3.4,0-6.2-2.8-6.2-6.2c0-3.4,2.8-6.2,6.2-6.2c3.4,0,6.2,2.8,6.2,6.2S349.7,147.5,346.3,147.5z M346.3,137.7c-2,0-3.6,1.6-3.6,3.6
	s1.6,3.6,3.6,3.6s3.6-1.6,3.6-3.6S348.3,137.7,346.3,137.7z M346.3,131.4c-3.4,0-6.2-2.8-6.2-6.2s2.8-6.2,6.2-6.2
	c3.4,0,6.2,2.8,6.2,6.2C352.5,128.6,349.7,131.4,346.3,131.4z M346.3,121.6c-2,0-3.6,1.6-3.6,3.6s1.6,3.6,3.6,3.6s3.6-1.6,3.6-3.6
	S348.3,121.6,346.3,121.6z M346.3,115.3c-3.4,0-6.2-2.8-6.2-6.2c0-3.4,2.8-6.2,6.2-6.2c3.4,0,6.2,2.8,6.2,6.2
	S349.7,115.3,346.3,115.3z M346.3,105.5c-2,0-3.6,1.6-3.6,3.6s1.6,3.6,3.6,3.6s3.6-1.6,3.6-3.6S348.3,105.5,346.3,105.5z
	 M346.3,99.2c-3.4,0-6.2-2.8-6.2-6.2c0-3.4,2.8-6.2,6.2-6.2c3.4,0,6.2,2.8,6.2,6.2C352.5,96.4,349.7,99.2,346.3,99.2z M346.3,89.3
	c-2,0-3.6,1.6-3.6,3.6s1.6,3.6,3.6,3.6s3.6-1.6,3.6-3.6C349.9,91,348.3,89.3,346.3,89.3z M346.3,83c-3.4,0-6.2-2.8-6.2-6.2
	c0-3.4,2.8-6.2,6.2-6.2c3.4,0,6.2,2.8,6.2,6.2C352.5,80.2,349.7,83,346.3,83z M346.3,73.2c-2,0-3.6,1.6-3.6,3.6s1.6,3.6,3.6,3.6
	s3.6-1.6,3.6-3.6S348.3,73.2,346.3,73.2z M346.3,66.9c-3.4,0-6.2-2.8-6.2-6.2c0-3.4,2.8-6.2,6.2-6.2c3.4,0,6.2,2.8,6.2,6.2
	C352.5,64.1,349.7,66.9,346.3,66.9z M346.3,57.1c-2,0-3.6,1.6-3.6,3.6s1.6,3.6,3.6,3.6s3.6-1.6,3.6-3.6
	C349.9,58.7,348.3,57.1,346.3,57.1z M346.3,50.8c-3.4,0-6.2-2.8-6.2-6.2s2.8-6.2,6.2-6.2c3.4,0,6.2,2.8,6.2,6.2
	S349.7,50.8,346.3,50.8z M346.3,41c-2,0-3.6,1.6-3.6,3.6s1.6,3.6,3.6,3.6s3.6-1.6,3.6-3.6S348.3,41,346.3,41z M346.3,34.7
	c-3.4,0-6.2-2.8-6.2-6.2s2.8-6.2,6.2-6.2c3.4,0,6.2,2.8,6.2,6.2S349.7,34.7,346.3,34.7z M346.3,24.9c-2,0-3.6,1.6-3.6,3.6
	s1.6,3.6,3.6,3.6s3.6-1.6,3.6-3.6S348.3,24.9,346.3,24.9z"/>
</svg>
